G04 EAGLE Gerber RS-274X export*
G75*
%MOMM*%
%FSLAX34Y34*%
%LPD*%
%INSilkscreen Bottom*%
%IPPOS*%
%AMOC8*
5,1,8,0,0,1.08239X$1,22.5*%
G01*
%ADD10C,0.101600*%


D10*
X980094Y510108D02*
X982691Y510108D01*
X982790Y510110D01*
X982890Y510116D01*
X982989Y510125D01*
X983087Y510138D01*
X983185Y510155D01*
X983283Y510176D01*
X983379Y510201D01*
X983474Y510229D01*
X983568Y510261D01*
X983661Y510296D01*
X983753Y510335D01*
X983843Y510378D01*
X983931Y510423D01*
X984018Y510473D01*
X984102Y510525D01*
X984185Y510581D01*
X984265Y510639D01*
X984343Y510701D01*
X984418Y510766D01*
X984491Y510834D01*
X984561Y510904D01*
X984629Y510977D01*
X984694Y511052D01*
X984756Y511130D01*
X984814Y511210D01*
X984870Y511293D01*
X984922Y511377D01*
X984972Y511464D01*
X985017Y511552D01*
X985060Y511642D01*
X985099Y511734D01*
X985134Y511827D01*
X985166Y511921D01*
X985194Y512016D01*
X985219Y512112D01*
X985240Y512210D01*
X985257Y512308D01*
X985270Y512406D01*
X985279Y512505D01*
X985285Y512605D01*
X985287Y512704D01*
X985287Y519196D01*
X985285Y519295D01*
X985279Y519395D01*
X985270Y519494D01*
X985257Y519592D01*
X985240Y519690D01*
X985219Y519788D01*
X985194Y519884D01*
X985166Y519979D01*
X985134Y520073D01*
X985099Y520166D01*
X985060Y520258D01*
X985017Y520348D01*
X984972Y520436D01*
X984922Y520523D01*
X984870Y520607D01*
X984814Y520690D01*
X984756Y520770D01*
X984694Y520848D01*
X984629Y520923D01*
X984561Y520996D01*
X984491Y521066D01*
X984418Y521134D01*
X984343Y521199D01*
X984265Y521261D01*
X984185Y521319D01*
X984102Y521375D01*
X984018Y521427D01*
X983931Y521477D01*
X983843Y521522D01*
X983753Y521565D01*
X983661Y521604D01*
X983568Y521639D01*
X983474Y521671D01*
X983379Y521699D01*
X983283Y521724D01*
X983185Y521745D01*
X983087Y521762D01*
X982989Y521775D01*
X982890Y521784D01*
X982790Y521790D01*
X982691Y521792D01*
X980094Y521792D01*
X975729Y519196D02*
X972484Y521792D01*
X972484Y510108D01*
X975729Y510108D02*
X969238Y510108D01*
X964299Y516599D02*
X960404Y516599D01*
X960305Y516597D01*
X960205Y516591D01*
X960106Y516582D01*
X960008Y516569D01*
X959910Y516552D01*
X959812Y516531D01*
X959716Y516506D01*
X959621Y516478D01*
X959527Y516446D01*
X959434Y516411D01*
X959342Y516372D01*
X959252Y516329D01*
X959164Y516284D01*
X959077Y516234D01*
X958993Y516182D01*
X958910Y516126D01*
X958830Y516068D01*
X958752Y516006D01*
X958677Y515941D01*
X958604Y515873D01*
X958534Y515803D01*
X958466Y515730D01*
X958401Y515655D01*
X958339Y515577D01*
X958281Y515497D01*
X958225Y515414D01*
X958173Y515330D01*
X958123Y515243D01*
X958078Y515155D01*
X958035Y515065D01*
X957996Y514973D01*
X957961Y514880D01*
X957929Y514786D01*
X957901Y514691D01*
X957876Y514595D01*
X957855Y514497D01*
X957838Y514399D01*
X957825Y514301D01*
X957816Y514202D01*
X957810Y514102D01*
X957808Y514003D01*
X957808Y513354D01*
X957810Y513241D01*
X957816Y513128D01*
X957826Y513015D01*
X957840Y512902D01*
X957857Y512790D01*
X957879Y512679D01*
X957904Y512569D01*
X957934Y512459D01*
X957967Y512351D01*
X958004Y512244D01*
X958044Y512138D01*
X958089Y512034D01*
X958137Y511931D01*
X958188Y511830D01*
X958243Y511731D01*
X958301Y511634D01*
X958363Y511539D01*
X958428Y511446D01*
X958496Y511356D01*
X958567Y511268D01*
X958642Y511182D01*
X958719Y511099D01*
X958799Y511019D01*
X958882Y510942D01*
X958968Y510867D01*
X959056Y510796D01*
X959146Y510728D01*
X959239Y510663D01*
X959334Y510601D01*
X959431Y510543D01*
X959530Y510488D01*
X959631Y510437D01*
X959734Y510389D01*
X959838Y510344D01*
X959944Y510304D01*
X960051Y510267D01*
X960159Y510234D01*
X960269Y510204D01*
X960379Y510179D01*
X960490Y510157D01*
X960602Y510140D01*
X960715Y510126D01*
X960828Y510116D01*
X960941Y510110D01*
X961054Y510108D01*
X961167Y510110D01*
X961280Y510116D01*
X961393Y510126D01*
X961506Y510140D01*
X961618Y510157D01*
X961729Y510179D01*
X961839Y510204D01*
X961949Y510234D01*
X962057Y510267D01*
X962164Y510304D01*
X962270Y510344D01*
X962374Y510389D01*
X962477Y510437D01*
X962578Y510488D01*
X962677Y510543D01*
X962774Y510601D01*
X962869Y510663D01*
X962962Y510728D01*
X963052Y510796D01*
X963140Y510867D01*
X963226Y510942D01*
X963309Y511019D01*
X963389Y511099D01*
X963466Y511182D01*
X963541Y511268D01*
X963612Y511356D01*
X963680Y511446D01*
X963745Y511539D01*
X963807Y511634D01*
X963865Y511731D01*
X963920Y511830D01*
X963971Y511931D01*
X964019Y512034D01*
X964064Y512138D01*
X964104Y512244D01*
X964141Y512351D01*
X964174Y512459D01*
X964204Y512569D01*
X964229Y512679D01*
X964251Y512790D01*
X964268Y512902D01*
X964282Y513015D01*
X964292Y513128D01*
X964298Y513241D01*
X964300Y513354D01*
X964299Y513354D02*
X964299Y516599D01*
X964297Y516742D01*
X964291Y516885D01*
X964281Y517028D01*
X964267Y517170D01*
X964250Y517312D01*
X964228Y517454D01*
X964203Y517595D01*
X964173Y517735D01*
X964140Y517874D01*
X964103Y518012D01*
X964062Y518149D01*
X964018Y518285D01*
X963969Y518420D01*
X963917Y518553D01*
X963862Y518685D01*
X963802Y518815D01*
X963739Y518944D01*
X963673Y519071D01*
X963603Y519196D01*
X963530Y519318D01*
X963453Y519439D01*
X963373Y519558D01*
X963290Y519674D01*
X963204Y519789D01*
X963115Y519900D01*
X963022Y520010D01*
X962927Y520116D01*
X962828Y520220D01*
X962727Y520321D01*
X962623Y520420D01*
X962517Y520515D01*
X962407Y520608D01*
X962296Y520697D01*
X962181Y520783D01*
X962065Y520866D01*
X961946Y520946D01*
X961825Y521023D01*
X961703Y521096D01*
X961578Y521166D01*
X961451Y521232D01*
X961322Y521295D01*
X961192Y521355D01*
X961060Y521410D01*
X960927Y521462D01*
X960792Y521511D01*
X960656Y521555D01*
X960519Y521596D01*
X960381Y521633D01*
X960242Y521666D01*
X960102Y521696D01*
X959961Y521721D01*
X959819Y521743D01*
X959677Y521760D01*
X959535Y521774D01*
X959392Y521784D01*
X959249Y521790D01*
X959106Y521792D01*
X980094Y585108D02*
X982691Y585108D01*
X982790Y585110D01*
X982890Y585116D01*
X982989Y585125D01*
X983087Y585138D01*
X983185Y585155D01*
X983283Y585176D01*
X983379Y585201D01*
X983474Y585229D01*
X983568Y585261D01*
X983661Y585296D01*
X983753Y585335D01*
X983843Y585378D01*
X983931Y585423D01*
X984018Y585473D01*
X984102Y585525D01*
X984185Y585581D01*
X984265Y585639D01*
X984343Y585701D01*
X984418Y585766D01*
X984491Y585834D01*
X984561Y585904D01*
X984629Y585977D01*
X984694Y586052D01*
X984756Y586130D01*
X984814Y586210D01*
X984870Y586293D01*
X984922Y586377D01*
X984972Y586464D01*
X985017Y586552D01*
X985060Y586642D01*
X985099Y586734D01*
X985134Y586827D01*
X985166Y586921D01*
X985194Y587016D01*
X985219Y587112D01*
X985240Y587210D01*
X985257Y587308D01*
X985270Y587406D01*
X985279Y587505D01*
X985285Y587605D01*
X985287Y587704D01*
X985287Y594196D01*
X985285Y594295D01*
X985279Y594395D01*
X985270Y594494D01*
X985257Y594592D01*
X985240Y594690D01*
X985219Y594788D01*
X985194Y594884D01*
X985166Y594979D01*
X985134Y595073D01*
X985099Y595166D01*
X985060Y595258D01*
X985017Y595348D01*
X984972Y595436D01*
X984922Y595523D01*
X984870Y595607D01*
X984814Y595690D01*
X984756Y595770D01*
X984694Y595848D01*
X984629Y595923D01*
X984561Y595996D01*
X984491Y596066D01*
X984418Y596134D01*
X984343Y596199D01*
X984265Y596261D01*
X984185Y596319D01*
X984102Y596375D01*
X984018Y596427D01*
X983931Y596477D01*
X983843Y596522D01*
X983753Y596565D01*
X983661Y596604D01*
X983568Y596639D01*
X983474Y596671D01*
X983379Y596699D01*
X983283Y596724D01*
X983185Y596745D01*
X983087Y596762D01*
X982989Y596775D01*
X982890Y596784D01*
X982790Y596790D01*
X982691Y596792D01*
X980094Y596792D01*
X975729Y594196D02*
X972484Y596792D01*
X972484Y585108D01*
X975729Y585108D02*
X969238Y585108D01*
X964299Y595494D02*
X964299Y596792D01*
X957808Y596792D01*
X961054Y585108D01*
X980094Y535108D02*
X982691Y535108D01*
X982790Y535110D01*
X982890Y535116D01*
X982989Y535125D01*
X983087Y535138D01*
X983185Y535155D01*
X983283Y535176D01*
X983379Y535201D01*
X983474Y535229D01*
X983568Y535261D01*
X983661Y535296D01*
X983753Y535335D01*
X983843Y535378D01*
X983931Y535423D01*
X984018Y535473D01*
X984102Y535525D01*
X984185Y535581D01*
X984265Y535639D01*
X984343Y535701D01*
X984418Y535766D01*
X984491Y535834D01*
X984561Y535904D01*
X984629Y535977D01*
X984694Y536052D01*
X984756Y536130D01*
X984814Y536210D01*
X984870Y536293D01*
X984922Y536377D01*
X984972Y536464D01*
X985017Y536552D01*
X985060Y536642D01*
X985099Y536734D01*
X985134Y536827D01*
X985166Y536921D01*
X985194Y537016D01*
X985219Y537112D01*
X985240Y537210D01*
X985257Y537308D01*
X985270Y537406D01*
X985279Y537505D01*
X985285Y537605D01*
X985287Y537704D01*
X985287Y544196D01*
X985285Y544295D01*
X985279Y544395D01*
X985270Y544494D01*
X985257Y544592D01*
X985240Y544690D01*
X985219Y544788D01*
X985194Y544884D01*
X985166Y544979D01*
X985134Y545073D01*
X985099Y545166D01*
X985060Y545258D01*
X985017Y545348D01*
X984972Y545436D01*
X984922Y545523D01*
X984870Y545607D01*
X984814Y545690D01*
X984756Y545770D01*
X984694Y545848D01*
X984629Y545923D01*
X984561Y545996D01*
X984491Y546066D01*
X984418Y546134D01*
X984343Y546199D01*
X984265Y546261D01*
X984185Y546319D01*
X984102Y546375D01*
X984018Y546427D01*
X983931Y546477D01*
X983843Y546522D01*
X983753Y546565D01*
X983661Y546604D01*
X983568Y546639D01*
X983474Y546671D01*
X983379Y546699D01*
X983283Y546724D01*
X983185Y546745D01*
X983087Y546762D01*
X982989Y546775D01*
X982890Y546784D01*
X982790Y546790D01*
X982691Y546792D01*
X980094Y546792D01*
X975729Y535108D02*
X971834Y535108D01*
X971735Y535110D01*
X971635Y535116D01*
X971536Y535125D01*
X971438Y535138D01*
X971340Y535155D01*
X971242Y535176D01*
X971146Y535201D01*
X971051Y535229D01*
X970957Y535261D01*
X970864Y535296D01*
X970772Y535335D01*
X970682Y535378D01*
X970594Y535423D01*
X970507Y535473D01*
X970423Y535525D01*
X970340Y535581D01*
X970260Y535639D01*
X970182Y535701D01*
X970107Y535766D01*
X970034Y535834D01*
X969964Y535904D01*
X969896Y535977D01*
X969831Y536052D01*
X969769Y536130D01*
X969711Y536210D01*
X969655Y536293D01*
X969603Y536377D01*
X969553Y536464D01*
X969508Y536552D01*
X969465Y536642D01*
X969426Y536734D01*
X969391Y536827D01*
X969359Y536921D01*
X969331Y537016D01*
X969306Y537112D01*
X969285Y537210D01*
X969268Y537308D01*
X969255Y537406D01*
X969246Y537505D01*
X969240Y537605D01*
X969238Y537704D01*
X969238Y539003D01*
X969240Y539102D01*
X969246Y539202D01*
X969255Y539301D01*
X969268Y539399D01*
X969285Y539497D01*
X969306Y539595D01*
X969331Y539691D01*
X969359Y539786D01*
X969391Y539880D01*
X969426Y539973D01*
X969465Y540065D01*
X969508Y540155D01*
X969553Y540243D01*
X969603Y540330D01*
X969655Y540414D01*
X969711Y540497D01*
X969769Y540577D01*
X969831Y540655D01*
X969896Y540730D01*
X969964Y540803D01*
X970034Y540873D01*
X970107Y540941D01*
X970182Y541006D01*
X970260Y541068D01*
X970340Y541126D01*
X970423Y541182D01*
X970507Y541234D01*
X970594Y541284D01*
X970682Y541329D01*
X970772Y541372D01*
X970864Y541411D01*
X970957Y541446D01*
X971051Y541478D01*
X971146Y541506D01*
X971242Y541531D01*
X971340Y541552D01*
X971438Y541569D01*
X971536Y541582D01*
X971635Y541591D01*
X971735Y541597D01*
X971834Y541599D01*
X975729Y541599D01*
X975729Y546792D01*
X969238Y546792D01*
X964299Y535108D02*
X960404Y535108D01*
X960305Y535110D01*
X960205Y535116D01*
X960106Y535125D01*
X960008Y535138D01*
X959910Y535155D01*
X959812Y535176D01*
X959716Y535201D01*
X959621Y535229D01*
X959527Y535261D01*
X959434Y535296D01*
X959342Y535335D01*
X959252Y535378D01*
X959164Y535423D01*
X959077Y535473D01*
X958993Y535525D01*
X958910Y535581D01*
X958830Y535639D01*
X958752Y535701D01*
X958677Y535766D01*
X958604Y535834D01*
X958534Y535904D01*
X958466Y535977D01*
X958401Y536052D01*
X958339Y536130D01*
X958281Y536210D01*
X958225Y536293D01*
X958173Y536377D01*
X958123Y536464D01*
X958078Y536552D01*
X958035Y536642D01*
X957996Y536734D01*
X957961Y536827D01*
X957929Y536921D01*
X957901Y537016D01*
X957876Y537112D01*
X957855Y537210D01*
X957838Y537308D01*
X957825Y537406D01*
X957816Y537505D01*
X957810Y537605D01*
X957808Y537704D01*
X957808Y539003D01*
X957810Y539102D01*
X957816Y539202D01*
X957825Y539301D01*
X957838Y539399D01*
X957855Y539497D01*
X957876Y539595D01*
X957901Y539691D01*
X957929Y539786D01*
X957961Y539880D01*
X957996Y539973D01*
X958035Y540065D01*
X958078Y540155D01*
X958123Y540243D01*
X958173Y540330D01*
X958225Y540414D01*
X958281Y540497D01*
X958339Y540577D01*
X958401Y540655D01*
X958466Y540730D01*
X958534Y540803D01*
X958604Y540873D01*
X958677Y540941D01*
X958752Y541006D01*
X958830Y541068D01*
X958910Y541126D01*
X958993Y541182D01*
X959077Y541234D01*
X959164Y541284D01*
X959252Y541329D01*
X959342Y541372D01*
X959434Y541411D01*
X959527Y541446D01*
X959621Y541478D01*
X959716Y541506D01*
X959812Y541531D01*
X959910Y541552D01*
X960008Y541569D01*
X960106Y541582D01*
X960205Y541591D01*
X960305Y541597D01*
X960404Y541599D01*
X964299Y541599D01*
X964299Y546792D01*
X957808Y546792D01*
X980094Y560108D02*
X982691Y560108D01*
X982790Y560110D01*
X982890Y560116D01*
X982989Y560125D01*
X983087Y560138D01*
X983185Y560155D01*
X983283Y560176D01*
X983379Y560201D01*
X983474Y560229D01*
X983568Y560261D01*
X983661Y560296D01*
X983753Y560335D01*
X983843Y560378D01*
X983931Y560423D01*
X984018Y560473D01*
X984102Y560525D01*
X984185Y560581D01*
X984265Y560639D01*
X984343Y560701D01*
X984418Y560766D01*
X984491Y560834D01*
X984561Y560904D01*
X984629Y560977D01*
X984694Y561052D01*
X984756Y561130D01*
X984814Y561210D01*
X984870Y561293D01*
X984922Y561377D01*
X984972Y561464D01*
X985017Y561552D01*
X985060Y561642D01*
X985099Y561734D01*
X985134Y561827D01*
X985166Y561921D01*
X985194Y562016D01*
X985219Y562112D01*
X985240Y562210D01*
X985257Y562308D01*
X985270Y562406D01*
X985279Y562505D01*
X985285Y562605D01*
X985287Y562704D01*
X985287Y569196D01*
X985285Y569295D01*
X985279Y569395D01*
X985270Y569494D01*
X985257Y569592D01*
X985240Y569690D01*
X985219Y569788D01*
X985194Y569884D01*
X985166Y569979D01*
X985134Y570073D01*
X985099Y570166D01*
X985060Y570258D01*
X985017Y570348D01*
X984972Y570436D01*
X984922Y570523D01*
X984870Y570607D01*
X984814Y570690D01*
X984756Y570770D01*
X984694Y570848D01*
X984629Y570923D01*
X984561Y570996D01*
X984491Y571066D01*
X984418Y571134D01*
X984343Y571199D01*
X984265Y571261D01*
X984185Y571319D01*
X984102Y571375D01*
X984018Y571427D01*
X983931Y571477D01*
X983843Y571522D01*
X983753Y571565D01*
X983661Y571604D01*
X983568Y571639D01*
X983474Y571671D01*
X983379Y571699D01*
X983283Y571724D01*
X983185Y571745D01*
X983087Y571762D01*
X982989Y571775D01*
X982890Y571784D01*
X982790Y571790D01*
X982691Y571792D01*
X980094Y571792D01*
X975729Y560108D02*
X971834Y560108D01*
X971735Y560110D01*
X971635Y560116D01*
X971536Y560125D01*
X971438Y560138D01*
X971340Y560155D01*
X971242Y560176D01*
X971146Y560201D01*
X971051Y560229D01*
X970957Y560261D01*
X970864Y560296D01*
X970772Y560335D01*
X970682Y560378D01*
X970594Y560423D01*
X970507Y560473D01*
X970423Y560525D01*
X970340Y560581D01*
X970260Y560639D01*
X970182Y560701D01*
X970107Y560766D01*
X970034Y560834D01*
X969964Y560904D01*
X969896Y560977D01*
X969831Y561052D01*
X969769Y561130D01*
X969711Y561210D01*
X969655Y561293D01*
X969603Y561377D01*
X969553Y561464D01*
X969508Y561552D01*
X969465Y561642D01*
X969426Y561734D01*
X969391Y561827D01*
X969359Y561921D01*
X969331Y562016D01*
X969306Y562112D01*
X969285Y562210D01*
X969268Y562308D01*
X969255Y562406D01*
X969246Y562505D01*
X969240Y562605D01*
X969238Y562704D01*
X969238Y564003D01*
X969240Y564102D01*
X969246Y564202D01*
X969255Y564301D01*
X969268Y564399D01*
X969285Y564497D01*
X969306Y564595D01*
X969331Y564691D01*
X969359Y564786D01*
X969391Y564880D01*
X969426Y564973D01*
X969465Y565065D01*
X969508Y565155D01*
X969553Y565243D01*
X969603Y565330D01*
X969655Y565414D01*
X969711Y565497D01*
X969769Y565577D01*
X969831Y565655D01*
X969896Y565730D01*
X969964Y565803D01*
X970034Y565873D01*
X970107Y565941D01*
X970182Y566006D01*
X970260Y566068D01*
X970340Y566126D01*
X970423Y566182D01*
X970507Y566234D01*
X970594Y566284D01*
X970682Y566329D01*
X970772Y566372D01*
X970864Y566411D01*
X970957Y566446D01*
X971051Y566478D01*
X971146Y566506D01*
X971242Y566531D01*
X971340Y566552D01*
X971438Y566569D01*
X971536Y566582D01*
X971635Y566591D01*
X971735Y566597D01*
X971834Y566599D01*
X975729Y566599D01*
X975729Y571792D01*
X969238Y571792D01*
X961703Y571792D02*
X964299Y562704D01*
X957808Y562704D01*
X959755Y565301D02*
X959755Y560108D01*
X754041Y551458D02*
X751444Y551458D01*
X754041Y551458D02*
X754140Y551460D01*
X754240Y551466D01*
X754339Y551475D01*
X754437Y551488D01*
X754535Y551505D01*
X754633Y551526D01*
X754729Y551551D01*
X754824Y551579D01*
X754918Y551611D01*
X755011Y551646D01*
X755103Y551685D01*
X755193Y551728D01*
X755281Y551773D01*
X755368Y551823D01*
X755452Y551875D01*
X755535Y551931D01*
X755615Y551989D01*
X755693Y552051D01*
X755768Y552116D01*
X755841Y552184D01*
X755911Y552254D01*
X755979Y552327D01*
X756044Y552402D01*
X756106Y552480D01*
X756164Y552560D01*
X756220Y552643D01*
X756272Y552727D01*
X756322Y552814D01*
X756367Y552902D01*
X756410Y552992D01*
X756449Y553084D01*
X756484Y553177D01*
X756516Y553271D01*
X756544Y553366D01*
X756569Y553462D01*
X756590Y553560D01*
X756607Y553658D01*
X756620Y553756D01*
X756629Y553855D01*
X756635Y553955D01*
X756637Y554054D01*
X756637Y560546D01*
X756635Y560645D01*
X756629Y560745D01*
X756620Y560844D01*
X756607Y560942D01*
X756590Y561040D01*
X756569Y561138D01*
X756544Y561234D01*
X756516Y561329D01*
X756484Y561423D01*
X756449Y561516D01*
X756410Y561608D01*
X756367Y561698D01*
X756322Y561786D01*
X756272Y561873D01*
X756220Y561957D01*
X756164Y562040D01*
X756106Y562120D01*
X756044Y562198D01*
X755979Y562273D01*
X755911Y562346D01*
X755841Y562416D01*
X755768Y562484D01*
X755693Y562549D01*
X755615Y562611D01*
X755535Y562669D01*
X755452Y562725D01*
X755368Y562777D01*
X755281Y562827D01*
X755193Y562872D01*
X755103Y562915D01*
X755011Y562954D01*
X754918Y562989D01*
X754824Y563021D01*
X754729Y563049D01*
X754633Y563074D01*
X754535Y563095D01*
X754437Y563112D01*
X754339Y563125D01*
X754240Y563134D01*
X754140Y563140D01*
X754041Y563142D01*
X751444Y563142D01*
X747079Y551458D02*
X743834Y551458D01*
X743721Y551460D01*
X743608Y551466D01*
X743495Y551476D01*
X743382Y551490D01*
X743270Y551507D01*
X743159Y551529D01*
X743049Y551554D01*
X742939Y551584D01*
X742831Y551617D01*
X742724Y551654D01*
X742618Y551694D01*
X742514Y551739D01*
X742411Y551787D01*
X742310Y551838D01*
X742211Y551893D01*
X742114Y551951D01*
X742019Y552013D01*
X741926Y552078D01*
X741836Y552146D01*
X741748Y552217D01*
X741662Y552292D01*
X741579Y552369D01*
X741499Y552449D01*
X741422Y552532D01*
X741347Y552618D01*
X741276Y552706D01*
X741208Y552796D01*
X741143Y552889D01*
X741081Y552984D01*
X741023Y553081D01*
X740968Y553180D01*
X740917Y553281D01*
X740869Y553384D01*
X740824Y553488D01*
X740784Y553594D01*
X740747Y553701D01*
X740714Y553809D01*
X740684Y553919D01*
X740659Y554029D01*
X740637Y554140D01*
X740620Y554252D01*
X740606Y554365D01*
X740596Y554478D01*
X740590Y554591D01*
X740588Y554704D01*
X740590Y554817D01*
X740596Y554930D01*
X740606Y555043D01*
X740620Y555156D01*
X740637Y555268D01*
X740659Y555379D01*
X740684Y555489D01*
X740714Y555599D01*
X740747Y555707D01*
X740784Y555814D01*
X740824Y555920D01*
X740869Y556024D01*
X740917Y556127D01*
X740968Y556228D01*
X741023Y556327D01*
X741081Y556424D01*
X741143Y556519D01*
X741208Y556612D01*
X741276Y556702D01*
X741347Y556790D01*
X741422Y556876D01*
X741499Y556959D01*
X741579Y557039D01*
X741662Y557116D01*
X741748Y557191D01*
X741836Y557262D01*
X741926Y557330D01*
X742019Y557395D01*
X742114Y557457D01*
X742211Y557515D01*
X742310Y557570D01*
X742411Y557621D01*
X742514Y557669D01*
X742618Y557714D01*
X742724Y557754D01*
X742831Y557791D01*
X742939Y557824D01*
X743049Y557854D01*
X743159Y557879D01*
X743270Y557901D01*
X743382Y557918D01*
X743495Y557932D01*
X743608Y557942D01*
X743721Y557948D01*
X743834Y557950D01*
X743184Y563142D02*
X747079Y563142D01*
X743184Y563142D02*
X743083Y563140D01*
X742983Y563134D01*
X742883Y563124D01*
X742783Y563111D01*
X742684Y563093D01*
X742585Y563072D01*
X742488Y563047D01*
X742391Y563018D01*
X742296Y562985D01*
X742202Y562949D01*
X742110Y562909D01*
X742019Y562866D01*
X741930Y562819D01*
X741843Y562769D01*
X741757Y562715D01*
X741674Y562658D01*
X741594Y562598D01*
X741515Y562535D01*
X741439Y562468D01*
X741366Y562399D01*
X741296Y562327D01*
X741228Y562253D01*
X741163Y562176D01*
X741102Y562096D01*
X741043Y562014D01*
X740988Y561930D01*
X740936Y561844D01*
X740887Y561756D01*
X740842Y561666D01*
X740800Y561574D01*
X740762Y561481D01*
X740728Y561386D01*
X740697Y561291D01*
X740670Y561194D01*
X740647Y561096D01*
X740627Y560997D01*
X740612Y560897D01*
X740600Y560797D01*
X740592Y560697D01*
X740588Y560596D01*
X740588Y560496D01*
X740592Y560395D01*
X740600Y560295D01*
X740612Y560195D01*
X740627Y560095D01*
X740647Y559996D01*
X740670Y559898D01*
X740697Y559801D01*
X740728Y559706D01*
X740762Y559611D01*
X740800Y559518D01*
X740842Y559426D01*
X740887Y559336D01*
X740936Y559248D01*
X740988Y559162D01*
X741043Y559078D01*
X741102Y558996D01*
X741163Y558916D01*
X741228Y558839D01*
X741296Y558765D01*
X741366Y558693D01*
X741439Y558624D01*
X741515Y558557D01*
X741594Y558494D01*
X741674Y558434D01*
X741757Y558377D01*
X741843Y558323D01*
X741930Y558273D01*
X742019Y558226D01*
X742110Y558183D01*
X742202Y558143D01*
X742296Y558107D01*
X742391Y558074D01*
X742488Y558045D01*
X742585Y558020D01*
X742684Y557999D01*
X742783Y557981D01*
X742883Y557968D01*
X742983Y557958D01*
X743083Y557952D01*
X743184Y557950D01*
X743184Y557949D02*
X745781Y557949D01*
X735649Y560546D02*
X732404Y563142D01*
X732404Y551458D01*
X735649Y551458D02*
X729158Y551458D01*
X751444Y526458D02*
X754041Y526458D01*
X754140Y526460D01*
X754240Y526466D01*
X754339Y526475D01*
X754437Y526488D01*
X754535Y526505D01*
X754633Y526526D01*
X754729Y526551D01*
X754824Y526579D01*
X754918Y526611D01*
X755011Y526646D01*
X755103Y526685D01*
X755193Y526728D01*
X755281Y526773D01*
X755368Y526823D01*
X755452Y526875D01*
X755535Y526931D01*
X755615Y526989D01*
X755693Y527051D01*
X755768Y527116D01*
X755841Y527184D01*
X755911Y527254D01*
X755979Y527327D01*
X756044Y527402D01*
X756106Y527480D01*
X756164Y527560D01*
X756220Y527643D01*
X756272Y527727D01*
X756322Y527814D01*
X756367Y527902D01*
X756410Y527992D01*
X756449Y528084D01*
X756484Y528177D01*
X756516Y528271D01*
X756544Y528366D01*
X756569Y528462D01*
X756590Y528560D01*
X756607Y528658D01*
X756620Y528756D01*
X756629Y528855D01*
X756635Y528955D01*
X756637Y529054D01*
X756637Y535546D01*
X756635Y535645D01*
X756629Y535745D01*
X756620Y535844D01*
X756607Y535942D01*
X756590Y536040D01*
X756569Y536138D01*
X756544Y536234D01*
X756516Y536329D01*
X756484Y536423D01*
X756449Y536516D01*
X756410Y536608D01*
X756367Y536698D01*
X756322Y536786D01*
X756272Y536873D01*
X756220Y536957D01*
X756164Y537040D01*
X756106Y537120D01*
X756044Y537198D01*
X755979Y537273D01*
X755911Y537346D01*
X755841Y537416D01*
X755768Y537484D01*
X755693Y537549D01*
X755615Y537611D01*
X755535Y537669D01*
X755452Y537725D01*
X755368Y537777D01*
X755281Y537827D01*
X755193Y537872D01*
X755103Y537915D01*
X755011Y537954D01*
X754918Y537989D01*
X754824Y538021D01*
X754729Y538049D01*
X754633Y538074D01*
X754535Y538095D01*
X754437Y538112D01*
X754339Y538125D01*
X754240Y538134D01*
X754140Y538140D01*
X754041Y538142D01*
X751444Y538142D01*
X747079Y526458D02*
X743834Y526458D01*
X743721Y526460D01*
X743608Y526466D01*
X743495Y526476D01*
X743382Y526490D01*
X743270Y526507D01*
X743159Y526529D01*
X743049Y526554D01*
X742939Y526584D01*
X742831Y526617D01*
X742724Y526654D01*
X742618Y526694D01*
X742514Y526739D01*
X742411Y526787D01*
X742310Y526838D01*
X742211Y526893D01*
X742114Y526951D01*
X742019Y527013D01*
X741926Y527078D01*
X741836Y527146D01*
X741748Y527217D01*
X741662Y527292D01*
X741579Y527369D01*
X741499Y527449D01*
X741422Y527532D01*
X741347Y527618D01*
X741276Y527706D01*
X741208Y527796D01*
X741143Y527889D01*
X741081Y527984D01*
X741023Y528081D01*
X740968Y528180D01*
X740917Y528281D01*
X740869Y528384D01*
X740824Y528488D01*
X740784Y528594D01*
X740747Y528701D01*
X740714Y528809D01*
X740684Y528919D01*
X740659Y529029D01*
X740637Y529140D01*
X740620Y529252D01*
X740606Y529365D01*
X740596Y529478D01*
X740590Y529591D01*
X740588Y529704D01*
X740590Y529817D01*
X740596Y529930D01*
X740606Y530043D01*
X740620Y530156D01*
X740637Y530268D01*
X740659Y530379D01*
X740684Y530489D01*
X740714Y530599D01*
X740747Y530707D01*
X740784Y530814D01*
X740824Y530920D01*
X740869Y531024D01*
X740917Y531127D01*
X740968Y531228D01*
X741023Y531327D01*
X741081Y531424D01*
X741143Y531519D01*
X741208Y531612D01*
X741276Y531702D01*
X741347Y531790D01*
X741422Y531876D01*
X741499Y531959D01*
X741579Y532039D01*
X741662Y532116D01*
X741748Y532191D01*
X741836Y532262D01*
X741926Y532330D01*
X742019Y532395D01*
X742114Y532457D01*
X742211Y532515D01*
X742310Y532570D01*
X742411Y532621D01*
X742514Y532669D01*
X742618Y532714D01*
X742724Y532754D01*
X742831Y532791D01*
X742939Y532824D01*
X743049Y532854D01*
X743159Y532879D01*
X743270Y532901D01*
X743382Y532918D01*
X743495Y532932D01*
X743608Y532942D01*
X743721Y532948D01*
X743834Y532950D01*
X743184Y538142D02*
X747079Y538142D01*
X743184Y538142D02*
X743083Y538140D01*
X742983Y538134D01*
X742883Y538124D01*
X742783Y538111D01*
X742684Y538093D01*
X742585Y538072D01*
X742488Y538047D01*
X742391Y538018D01*
X742296Y537985D01*
X742202Y537949D01*
X742110Y537909D01*
X742019Y537866D01*
X741930Y537819D01*
X741843Y537769D01*
X741757Y537715D01*
X741674Y537658D01*
X741594Y537598D01*
X741515Y537535D01*
X741439Y537468D01*
X741366Y537399D01*
X741296Y537327D01*
X741228Y537253D01*
X741163Y537176D01*
X741102Y537096D01*
X741043Y537014D01*
X740988Y536930D01*
X740936Y536844D01*
X740887Y536756D01*
X740842Y536666D01*
X740800Y536574D01*
X740762Y536481D01*
X740728Y536386D01*
X740697Y536291D01*
X740670Y536194D01*
X740647Y536096D01*
X740627Y535997D01*
X740612Y535897D01*
X740600Y535797D01*
X740592Y535697D01*
X740588Y535596D01*
X740588Y535496D01*
X740592Y535395D01*
X740600Y535295D01*
X740612Y535195D01*
X740627Y535095D01*
X740647Y534996D01*
X740670Y534898D01*
X740697Y534801D01*
X740728Y534706D01*
X740762Y534611D01*
X740800Y534518D01*
X740842Y534426D01*
X740887Y534336D01*
X740936Y534248D01*
X740988Y534162D01*
X741043Y534078D01*
X741102Y533996D01*
X741163Y533916D01*
X741228Y533839D01*
X741296Y533765D01*
X741366Y533693D01*
X741439Y533624D01*
X741515Y533557D01*
X741594Y533494D01*
X741674Y533434D01*
X741757Y533377D01*
X741843Y533323D01*
X741930Y533273D01*
X742019Y533226D01*
X742110Y533183D01*
X742202Y533143D01*
X742296Y533107D01*
X742391Y533074D01*
X742488Y533045D01*
X742585Y533020D01*
X742684Y532999D01*
X742783Y532981D01*
X742883Y532968D01*
X742983Y532958D01*
X743083Y532952D01*
X743184Y532950D01*
X743184Y532949D02*
X745781Y532949D01*
X735649Y532949D02*
X731754Y532949D01*
X731655Y532947D01*
X731555Y532941D01*
X731456Y532932D01*
X731358Y532919D01*
X731260Y532902D01*
X731162Y532881D01*
X731066Y532856D01*
X730971Y532828D01*
X730877Y532796D01*
X730784Y532761D01*
X730692Y532722D01*
X730602Y532679D01*
X730514Y532634D01*
X730427Y532584D01*
X730343Y532532D01*
X730260Y532476D01*
X730180Y532418D01*
X730102Y532356D01*
X730027Y532291D01*
X729954Y532223D01*
X729884Y532153D01*
X729816Y532080D01*
X729751Y532005D01*
X729689Y531927D01*
X729631Y531847D01*
X729575Y531764D01*
X729523Y531680D01*
X729473Y531593D01*
X729428Y531505D01*
X729385Y531415D01*
X729346Y531323D01*
X729311Y531230D01*
X729279Y531136D01*
X729251Y531041D01*
X729226Y530945D01*
X729205Y530847D01*
X729188Y530749D01*
X729175Y530651D01*
X729166Y530552D01*
X729160Y530452D01*
X729158Y530353D01*
X729158Y529704D01*
X729160Y529591D01*
X729166Y529478D01*
X729176Y529365D01*
X729190Y529252D01*
X729207Y529140D01*
X729229Y529029D01*
X729254Y528919D01*
X729284Y528809D01*
X729317Y528701D01*
X729354Y528594D01*
X729394Y528488D01*
X729439Y528384D01*
X729487Y528281D01*
X729538Y528180D01*
X729593Y528081D01*
X729651Y527984D01*
X729713Y527889D01*
X729778Y527796D01*
X729846Y527706D01*
X729917Y527618D01*
X729992Y527532D01*
X730069Y527449D01*
X730149Y527369D01*
X730232Y527292D01*
X730318Y527217D01*
X730406Y527146D01*
X730496Y527078D01*
X730589Y527013D01*
X730684Y526951D01*
X730781Y526893D01*
X730880Y526838D01*
X730981Y526787D01*
X731084Y526739D01*
X731188Y526694D01*
X731294Y526654D01*
X731401Y526617D01*
X731509Y526584D01*
X731619Y526554D01*
X731729Y526529D01*
X731840Y526507D01*
X731952Y526490D01*
X732065Y526476D01*
X732178Y526466D01*
X732291Y526460D01*
X732404Y526458D01*
X732517Y526460D01*
X732630Y526466D01*
X732743Y526476D01*
X732856Y526490D01*
X732968Y526507D01*
X733079Y526529D01*
X733189Y526554D01*
X733299Y526584D01*
X733407Y526617D01*
X733514Y526654D01*
X733620Y526694D01*
X733724Y526739D01*
X733827Y526787D01*
X733928Y526838D01*
X734027Y526893D01*
X734124Y526951D01*
X734219Y527013D01*
X734312Y527078D01*
X734402Y527146D01*
X734490Y527217D01*
X734576Y527292D01*
X734659Y527369D01*
X734739Y527449D01*
X734816Y527532D01*
X734891Y527618D01*
X734962Y527706D01*
X735030Y527796D01*
X735095Y527889D01*
X735157Y527984D01*
X735215Y528081D01*
X735270Y528180D01*
X735321Y528281D01*
X735369Y528384D01*
X735414Y528488D01*
X735454Y528594D01*
X735491Y528701D01*
X735524Y528809D01*
X735554Y528919D01*
X735579Y529029D01*
X735601Y529140D01*
X735618Y529252D01*
X735632Y529365D01*
X735642Y529478D01*
X735648Y529591D01*
X735650Y529704D01*
X735649Y529704D02*
X735649Y532949D01*
X735647Y533092D01*
X735641Y533235D01*
X735631Y533378D01*
X735617Y533520D01*
X735600Y533662D01*
X735578Y533804D01*
X735553Y533945D01*
X735523Y534085D01*
X735490Y534224D01*
X735453Y534362D01*
X735412Y534499D01*
X735368Y534635D01*
X735319Y534770D01*
X735267Y534903D01*
X735212Y535035D01*
X735152Y535165D01*
X735089Y535294D01*
X735023Y535421D01*
X734953Y535546D01*
X734880Y535668D01*
X734803Y535789D01*
X734723Y535908D01*
X734640Y536024D01*
X734554Y536139D01*
X734465Y536250D01*
X734372Y536360D01*
X734277Y536466D01*
X734178Y536570D01*
X734077Y536671D01*
X733973Y536770D01*
X733867Y536865D01*
X733757Y536958D01*
X733646Y537047D01*
X733531Y537133D01*
X733415Y537216D01*
X733296Y537296D01*
X733175Y537373D01*
X733053Y537446D01*
X732928Y537516D01*
X732801Y537582D01*
X732672Y537645D01*
X732542Y537705D01*
X732410Y537760D01*
X732277Y537812D01*
X732142Y537861D01*
X732006Y537905D01*
X731869Y537946D01*
X731731Y537983D01*
X731592Y538016D01*
X731452Y538046D01*
X731311Y538071D01*
X731169Y538093D01*
X731027Y538110D01*
X730885Y538124D01*
X730742Y538134D01*
X730599Y538140D01*
X730456Y538142D01*
X775649Y506858D02*
X778246Y506858D01*
X778345Y506860D01*
X778445Y506866D01*
X778544Y506875D01*
X778642Y506888D01*
X778740Y506905D01*
X778838Y506926D01*
X778934Y506951D01*
X779029Y506979D01*
X779123Y507011D01*
X779216Y507046D01*
X779308Y507085D01*
X779398Y507128D01*
X779486Y507173D01*
X779573Y507223D01*
X779657Y507275D01*
X779740Y507331D01*
X779820Y507389D01*
X779898Y507451D01*
X779973Y507516D01*
X780046Y507584D01*
X780116Y507654D01*
X780184Y507727D01*
X780249Y507802D01*
X780311Y507880D01*
X780369Y507960D01*
X780425Y508043D01*
X780477Y508127D01*
X780527Y508214D01*
X780572Y508302D01*
X780615Y508392D01*
X780654Y508484D01*
X780689Y508577D01*
X780721Y508671D01*
X780749Y508766D01*
X780774Y508862D01*
X780795Y508960D01*
X780812Y509058D01*
X780825Y509156D01*
X780834Y509255D01*
X780840Y509355D01*
X780842Y509454D01*
X780842Y515946D01*
X780840Y516045D01*
X780834Y516145D01*
X780825Y516244D01*
X780812Y516342D01*
X780795Y516440D01*
X780774Y516538D01*
X780749Y516634D01*
X780721Y516729D01*
X780689Y516823D01*
X780654Y516916D01*
X780615Y517008D01*
X780572Y517098D01*
X780527Y517186D01*
X780477Y517273D01*
X780425Y517357D01*
X780369Y517440D01*
X780311Y517520D01*
X780249Y517598D01*
X780184Y517673D01*
X780116Y517746D01*
X780046Y517816D01*
X779973Y517884D01*
X779898Y517949D01*
X779820Y518011D01*
X779740Y518069D01*
X779657Y518125D01*
X779573Y518177D01*
X779486Y518227D01*
X779398Y518272D01*
X779308Y518315D01*
X779216Y518354D01*
X779123Y518389D01*
X779029Y518421D01*
X778934Y518449D01*
X778838Y518474D01*
X778740Y518495D01*
X778642Y518512D01*
X778544Y518525D01*
X778445Y518534D01*
X778345Y518540D01*
X778246Y518542D01*
X775649Y518542D01*
X768687Y518542D02*
X771284Y509454D01*
X764793Y509454D01*
X766740Y512051D02*
X766740Y506858D01*
X759854Y517244D02*
X759854Y518542D01*
X753363Y518542D01*
X756608Y506858D01*
X738246Y651858D02*
X735649Y651858D01*
X738246Y651858D02*
X738345Y651860D01*
X738445Y651866D01*
X738544Y651875D01*
X738642Y651888D01*
X738740Y651905D01*
X738838Y651926D01*
X738934Y651951D01*
X739029Y651979D01*
X739123Y652011D01*
X739216Y652046D01*
X739308Y652085D01*
X739398Y652128D01*
X739486Y652173D01*
X739573Y652223D01*
X739657Y652275D01*
X739740Y652331D01*
X739820Y652389D01*
X739898Y652451D01*
X739973Y652516D01*
X740046Y652584D01*
X740116Y652654D01*
X740184Y652727D01*
X740249Y652802D01*
X740311Y652880D01*
X740369Y652960D01*
X740425Y653043D01*
X740477Y653127D01*
X740527Y653214D01*
X740572Y653302D01*
X740615Y653392D01*
X740654Y653484D01*
X740689Y653577D01*
X740721Y653671D01*
X740749Y653766D01*
X740774Y653862D01*
X740795Y653960D01*
X740812Y654058D01*
X740825Y654156D01*
X740834Y654255D01*
X740840Y654355D01*
X740842Y654454D01*
X740842Y660946D01*
X740840Y661045D01*
X740834Y661145D01*
X740825Y661244D01*
X740812Y661342D01*
X740795Y661440D01*
X740774Y661538D01*
X740749Y661634D01*
X740721Y661729D01*
X740689Y661823D01*
X740654Y661916D01*
X740615Y662008D01*
X740572Y662098D01*
X740527Y662186D01*
X740477Y662273D01*
X740425Y662357D01*
X740369Y662440D01*
X740311Y662520D01*
X740249Y662598D01*
X740184Y662673D01*
X740116Y662746D01*
X740046Y662816D01*
X739973Y662884D01*
X739898Y662949D01*
X739820Y663011D01*
X739740Y663069D01*
X739657Y663125D01*
X739573Y663177D01*
X739486Y663227D01*
X739398Y663272D01*
X739308Y663315D01*
X739216Y663354D01*
X739123Y663389D01*
X739029Y663421D01*
X738934Y663449D01*
X738838Y663474D01*
X738740Y663495D01*
X738642Y663512D01*
X738544Y663525D01*
X738445Y663534D01*
X738345Y663540D01*
X738246Y663542D01*
X735649Y663542D01*
X731284Y660946D02*
X728038Y663542D01*
X728038Y651858D01*
X724793Y651858D02*
X731284Y651858D01*
X717257Y657051D02*
X713363Y657051D01*
X717257Y657051D02*
X717356Y657053D01*
X717456Y657059D01*
X717555Y657068D01*
X717653Y657081D01*
X717751Y657098D01*
X717849Y657119D01*
X717945Y657144D01*
X718040Y657172D01*
X718134Y657204D01*
X718227Y657239D01*
X718319Y657278D01*
X718409Y657321D01*
X718497Y657366D01*
X718584Y657416D01*
X718668Y657468D01*
X718751Y657524D01*
X718831Y657582D01*
X718909Y657644D01*
X718984Y657709D01*
X719057Y657777D01*
X719127Y657847D01*
X719195Y657920D01*
X719260Y657995D01*
X719322Y658073D01*
X719380Y658153D01*
X719436Y658236D01*
X719488Y658320D01*
X719538Y658407D01*
X719583Y658495D01*
X719626Y658585D01*
X719665Y658677D01*
X719700Y658770D01*
X719732Y658864D01*
X719760Y658959D01*
X719785Y659055D01*
X719806Y659153D01*
X719823Y659251D01*
X719836Y659349D01*
X719845Y659448D01*
X719851Y659548D01*
X719853Y659647D01*
X719854Y659647D02*
X719854Y660296D01*
X719852Y660409D01*
X719846Y660522D01*
X719836Y660635D01*
X719822Y660748D01*
X719805Y660860D01*
X719783Y660971D01*
X719758Y661081D01*
X719728Y661191D01*
X719695Y661299D01*
X719658Y661406D01*
X719618Y661512D01*
X719573Y661616D01*
X719525Y661719D01*
X719474Y661820D01*
X719419Y661919D01*
X719361Y662016D01*
X719299Y662111D01*
X719234Y662204D01*
X719166Y662294D01*
X719095Y662382D01*
X719020Y662468D01*
X718943Y662551D01*
X718863Y662631D01*
X718780Y662708D01*
X718694Y662783D01*
X718606Y662854D01*
X718516Y662922D01*
X718423Y662987D01*
X718328Y663049D01*
X718231Y663107D01*
X718132Y663162D01*
X718031Y663213D01*
X717928Y663261D01*
X717824Y663306D01*
X717718Y663346D01*
X717611Y663383D01*
X717503Y663416D01*
X717393Y663446D01*
X717283Y663471D01*
X717172Y663493D01*
X717060Y663510D01*
X716947Y663524D01*
X716834Y663534D01*
X716721Y663540D01*
X716608Y663542D01*
X716495Y663540D01*
X716382Y663534D01*
X716269Y663524D01*
X716156Y663510D01*
X716044Y663493D01*
X715933Y663471D01*
X715823Y663446D01*
X715713Y663416D01*
X715605Y663383D01*
X715498Y663346D01*
X715392Y663306D01*
X715288Y663261D01*
X715185Y663213D01*
X715084Y663162D01*
X714985Y663107D01*
X714888Y663049D01*
X714793Y662987D01*
X714700Y662922D01*
X714610Y662854D01*
X714522Y662783D01*
X714436Y662708D01*
X714353Y662631D01*
X714273Y662551D01*
X714196Y662468D01*
X714121Y662382D01*
X714050Y662294D01*
X713982Y662204D01*
X713917Y662111D01*
X713855Y662016D01*
X713797Y661919D01*
X713742Y661820D01*
X713691Y661719D01*
X713643Y661616D01*
X713598Y661512D01*
X713558Y661406D01*
X713521Y661299D01*
X713488Y661191D01*
X713458Y661081D01*
X713433Y660971D01*
X713411Y660860D01*
X713394Y660748D01*
X713380Y660635D01*
X713370Y660522D01*
X713364Y660409D01*
X713362Y660296D01*
X713363Y660296D02*
X713363Y657051D01*
X713365Y656908D01*
X713371Y656765D01*
X713381Y656622D01*
X713395Y656480D01*
X713412Y656338D01*
X713434Y656196D01*
X713459Y656055D01*
X713489Y655915D01*
X713522Y655776D01*
X713559Y655638D01*
X713600Y655501D01*
X713644Y655365D01*
X713693Y655230D01*
X713745Y655097D01*
X713800Y654965D01*
X713860Y654835D01*
X713923Y654706D01*
X713989Y654579D01*
X714059Y654455D01*
X714132Y654332D01*
X714209Y654211D01*
X714289Y654092D01*
X714372Y653976D01*
X714458Y653861D01*
X714547Y653750D01*
X714640Y653640D01*
X714735Y653534D01*
X714834Y653430D01*
X714935Y653329D01*
X715039Y653230D01*
X715145Y653135D01*
X715255Y653042D01*
X715366Y652953D01*
X715481Y652867D01*
X715597Y652784D01*
X715716Y652704D01*
X715837Y652627D01*
X715960Y652554D01*
X716084Y652484D01*
X716211Y652418D01*
X716340Y652355D01*
X716470Y652295D01*
X716602Y652240D01*
X716735Y652188D01*
X716870Y652139D01*
X717006Y652095D01*
X717143Y652054D01*
X717281Y652017D01*
X717420Y651984D01*
X717560Y651954D01*
X717701Y651929D01*
X717843Y651907D01*
X717985Y651890D01*
X718127Y651876D01*
X718270Y651866D01*
X718413Y651860D01*
X718556Y651858D01*
X745094Y495108D02*
X747691Y495108D01*
X747790Y495110D01*
X747890Y495116D01*
X747989Y495125D01*
X748087Y495138D01*
X748185Y495155D01*
X748283Y495176D01*
X748379Y495201D01*
X748474Y495229D01*
X748568Y495261D01*
X748661Y495296D01*
X748753Y495335D01*
X748843Y495378D01*
X748931Y495423D01*
X749018Y495473D01*
X749102Y495525D01*
X749185Y495581D01*
X749265Y495639D01*
X749343Y495701D01*
X749418Y495766D01*
X749491Y495834D01*
X749561Y495904D01*
X749629Y495977D01*
X749694Y496052D01*
X749756Y496130D01*
X749814Y496210D01*
X749870Y496293D01*
X749922Y496377D01*
X749972Y496464D01*
X750017Y496552D01*
X750060Y496642D01*
X750099Y496734D01*
X750134Y496827D01*
X750166Y496921D01*
X750194Y497016D01*
X750219Y497112D01*
X750240Y497210D01*
X750257Y497308D01*
X750270Y497406D01*
X750279Y497505D01*
X750285Y497605D01*
X750287Y497704D01*
X750287Y504196D01*
X750285Y504295D01*
X750279Y504395D01*
X750270Y504494D01*
X750257Y504592D01*
X750240Y504690D01*
X750219Y504788D01*
X750194Y504884D01*
X750166Y504979D01*
X750134Y505073D01*
X750099Y505166D01*
X750060Y505258D01*
X750017Y505348D01*
X749972Y505436D01*
X749922Y505523D01*
X749870Y505607D01*
X749814Y505690D01*
X749756Y505770D01*
X749694Y505848D01*
X749629Y505923D01*
X749561Y505996D01*
X749491Y506066D01*
X749418Y506134D01*
X749343Y506199D01*
X749265Y506261D01*
X749185Y506319D01*
X749102Y506375D01*
X749018Y506427D01*
X748931Y506477D01*
X748843Y506522D01*
X748753Y506565D01*
X748661Y506604D01*
X748568Y506639D01*
X748474Y506671D01*
X748379Y506699D01*
X748283Y506724D01*
X748185Y506745D01*
X748087Y506762D01*
X747989Y506775D01*
X747890Y506784D01*
X747790Y506790D01*
X747691Y506792D01*
X745094Y506792D01*
X738133Y506792D02*
X740729Y497704D01*
X734238Y497704D01*
X736185Y500301D02*
X736185Y495108D01*
X725729Y506792D02*
X725622Y506790D01*
X725516Y506784D01*
X725410Y506774D01*
X725304Y506761D01*
X725198Y506743D01*
X725094Y506722D01*
X724990Y506697D01*
X724887Y506668D01*
X724786Y506636D01*
X724686Y506599D01*
X724587Y506559D01*
X724489Y506516D01*
X724393Y506469D01*
X724299Y506418D01*
X724207Y506364D01*
X724117Y506307D01*
X724029Y506247D01*
X723944Y506183D01*
X723861Y506116D01*
X723780Y506046D01*
X723702Y505974D01*
X723626Y505898D01*
X723554Y505820D01*
X723484Y505739D01*
X723417Y505656D01*
X723353Y505571D01*
X723293Y505483D01*
X723236Y505393D01*
X723182Y505301D01*
X723131Y505207D01*
X723084Y505111D01*
X723041Y505013D01*
X723001Y504914D01*
X722964Y504814D01*
X722932Y504713D01*
X722903Y504610D01*
X722878Y504506D01*
X722857Y504402D01*
X722839Y504296D01*
X722826Y504190D01*
X722816Y504084D01*
X722810Y503978D01*
X722808Y503871D01*
X725729Y506792D02*
X725850Y506790D01*
X725971Y506784D01*
X726091Y506774D01*
X726212Y506761D01*
X726331Y506743D01*
X726451Y506722D01*
X726569Y506697D01*
X726686Y506668D01*
X726803Y506635D01*
X726918Y506599D01*
X727032Y506558D01*
X727145Y506515D01*
X727257Y506467D01*
X727366Y506416D01*
X727474Y506361D01*
X727581Y506303D01*
X727685Y506242D01*
X727787Y506177D01*
X727887Y506109D01*
X727985Y506038D01*
X728081Y505964D01*
X728174Y505887D01*
X728264Y505806D01*
X728352Y505723D01*
X728437Y505637D01*
X728520Y505548D01*
X728599Y505457D01*
X728676Y505363D01*
X728749Y505267D01*
X728819Y505169D01*
X728886Y505068D01*
X728950Y504965D01*
X729011Y504860D01*
X729068Y504753D01*
X729121Y504645D01*
X729171Y504535D01*
X729217Y504423D01*
X729260Y504310D01*
X729299Y504195D01*
X723782Y501599D02*
X723703Y501677D01*
X723627Y501757D01*
X723554Y501840D01*
X723484Y501926D01*
X723417Y502013D01*
X723353Y502104D01*
X723293Y502196D01*
X723235Y502290D01*
X723181Y502387D01*
X723131Y502485D01*
X723084Y502585D01*
X723040Y502686D01*
X723000Y502789D01*
X722964Y502894D01*
X722932Y502999D01*
X722903Y503106D01*
X722878Y503213D01*
X722856Y503322D01*
X722839Y503431D01*
X722825Y503540D01*
X722816Y503650D01*
X722810Y503761D01*
X722808Y503871D01*
X723782Y501599D02*
X729299Y495108D01*
X722808Y495108D01*
X666792Y596565D02*
X655108Y596565D01*
X666792Y596565D02*
X666792Y599810D01*
X666790Y599923D01*
X666784Y600036D01*
X666774Y600149D01*
X666760Y600262D01*
X666743Y600374D01*
X666721Y600485D01*
X666696Y600595D01*
X666666Y600705D01*
X666633Y600813D01*
X666596Y600920D01*
X666556Y601026D01*
X666511Y601130D01*
X666463Y601233D01*
X666412Y601334D01*
X666357Y601433D01*
X666299Y601530D01*
X666237Y601625D01*
X666172Y601718D01*
X666104Y601808D01*
X666033Y601896D01*
X665958Y601982D01*
X665881Y602065D01*
X665801Y602145D01*
X665718Y602222D01*
X665632Y602297D01*
X665544Y602368D01*
X665454Y602436D01*
X665361Y602501D01*
X665266Y602563D01*
X665169Y602621D01*
X665070Y602676D01*
X664969Y602727D01*
X664866Y602775D01*
X664762Y602820D01*
X664656Y602860D01*
X664549Y602897D01*
X664441Y602930D01*
X664331Y602960D01*
X664221Y602985D01*
X664110Y603007D01*
X663998Y603024D01*
X663885Y603038D01*
X663772Y603048D01*
X663659Y603054D01*
X663546Y603056D01*
X663433Y603054D01*
X663320Y603048D01*
X663207Y603038D01*
X663094Y603024D01*
X662982Y603007D01*
X662871Y602985D01*
X662761Y602960D01*
X662651Y602930D01*
X662543Y602897D01*
X662436Y602860D01*
X662330Y602820D01*
X662226Y602775D01*
X662123Y602727D01*
X662022Y602676D01*
X661923Y602621D01*
X661826Y602563D01*
X661731Y602501D01*
X661638Y602436D01*
X661548Y602368D01*
X661460Y602297D01*
X661374Y602222D01*
X661291Y602145D01*
X661211Y602065D01*
X661134Y601982D01*
X661059Y601896D01*
X660988Y601808D01*
X660920Y601718D01*
X660855Y601625D01*
X660793Y601530D01*
X660735Y601433D01*
X660680Y601334D01*
X660629Y601233D01*
X660581Y601130D01*
X660536Y601026D01*
X660496Y600920D01*
X660459Y600813D01*
X660426Y600705D01*
X660396Y600595D01*
X660371Y600485D01*
X660349Y600374D01*
X660332Y600262D01*
X660318Y600149D01*
X660308Y600036D01*
X660302Y599923D01*
X660300Y599810D01*
X660301Y599810D02*
X660301Y596565D01*
X660301Y600459D02*
X655108Y603056D01*
X664196Y607921D02*
X666792Y611166D01*
X655108Y611166D01*
X655108Y607921D02*
X655108Y614412D01*
X661599Y619351D02*
X661599Y623246D01*
X661597Y623345D01*
X661591Y623445D01*
X661582Y623544D01*
X661569Y623642D01*
X661552Y623740D01*
X661531Y623838D01*
X661506Y623934D01*
X661478Y624029D01*
X661446Y624123D01*
X661411Y624216D01*
X661372Y624308D01*
X661329Y624398D01*
X661284Y624486D01*
X661234Y624573D01*
X661182Y624657D01*
X661126Y624740D01*
X661068Y624820D01*
X661006Y624898D01*
X660941Y624973D01*
X660873Y625046D01*
X660803Y625116D01*
X660730Y625184D01*
X660655Y625249D01*
X660577Y625311D01*
X660497Y625369D01*
X660414Y625425D01*
X660330Y625477D01*
X660243Y625527D01*
X660155Y625572D01*
X660065Y625615D01*
X659973Y625654D01*
X659880Y625689D01*
X659786Y625721D01*
X659691Y625749D01*
X659595Y625774D01*
X659497Y625795D01*
X659399Y625812D01*
X659301Y625825D01*
X659202Y625834D01*
X659102Y625840D01*
X659003Y625842D01*
X658354Y625842D01*
X658241Y625840D01*
X658128Y625834D01*
X658015Y625824D01*
X657902Y625810D01*
X657790Y625793D01*
X657679Y625771D01*
X657569Y625746D01*
X657459Y625716D01*
X657351Y625683D01*
X657244Y625646D01*
X657138Y625606D01*
X657034Y625561D01*
X656931Y625513D01*
X656830Y625462D01*
X656731Y625407D01*
X656634Y625349D01*
X656539Y625287D01*
X656446Y625222D01*
X656356Y625154D01*
X656268Y625083D01*
X656182Y625008D01*
X656099Y624931D01*
X656019Y624851D01*
X655942Y624768D01*
X655867Y624682D01*
X655796Y624594D01*
X655728Y624504D01*
X655663Y624411D01*
X655601Y624316D01*
X655543Y624219D01*
X655488Y624120D01*
X655437Y624019D01*
X655389Y623916D01*
X655344Y623812D01*
X655304Y623706D01*
X655267Y623599D01*
X655234Y623491D01*
X655204Y623381D01*
X655179Y623271D01*
X655157Y623160D01*
X655140Y623048D01*
X655126Y622935D01*
X655116Y622822D01*
X655110Y622709D01*
X655108Y622596D01*
X655110Y622483D01*
X655116Y622370D01*
X655126Y622257D01*
X655140Y622144D01*
X655157Y622032D01*
X655179Y621921D01*
X655204Y621811D01*
X655234Y621701D01*
X655267Y621593D01*
X655304Y621486D01*
X655344Y621380D01*
X655389Y621276D01*
X655437Y621173D01*
X655488Y621072D01*
X655543Y620973D01*
X655601Y620876D01*
X655663Y620781D01*
X655728Y620688D01*
X655796Y620598D01*
X655867Y620510D01*
X655942Y620424D01*
X656019Y620341D01*
X656099Y620261D01*
X656182Y620184D01*
X656268Y620109D01*
X656356Y620038D01*
X656446Y619970D01*
X656539Y619905D01*
X656634Y619843D01*
X656731Y619785D01*
X656830Y619730D01*
X656931Y619679D01*
X657034Y619631D01*
X657138Y619586D01*
X657244Y619546D01*
X657351Y619509D01*
X657459Y619476D01*
X657569Y619446D01*
X657679Y619421D01*
X657790Y619399D01*
X657902Y619382D01*
X658015Y619368D01*
X658128Y619358D01*
X658241Y619352D01*
X658354Y619350D01*
X658354Y619351D02*
X661599Y619351D01*
X661742Y619353D01*
X661885Y619359D01*
X662028Y619369D01*
X662170Y619383D01*
X662312Y619400D01*
X662454Y619422D01*
X662595Y619447D01*
X662735Y619477D01*
X662874Y619510D01*
X663012Y619547D01*
X663149Y619588D01*
X663285Y619632D01*
X663420Y619681D01*
X663553Y619733D01*
X663685Y619788D01*
X663815Y619848D01*
X663944Y619911D01*
X664071Y619977D01*
X664195Y620047D01*
X664318Y620120D01*
X664439Y620197D01*
X664558Y620277D01*
X664674Y620360D01*
X664789Y620446D01*
X664900Y620535D01*
X665010Y620628D01*
X665116Y620723D01*
X665220Y620822D01*
X665321Y620923D01*
X665420Y621027D01*
X665515Y621133D01*
X665608Y621243D01*
X665697Y621354D01*
X665783Y621469D01*
X665866Y621585D01*
X665946Y621704D01*
X666023Y621825D01*
X666096Y621947D01*
X666166Y622072D01*
X666232Y622199D01*
X666295Y622328D01*
X666355Y622458D01*
X666410Y622590D01*
X666462Y622723D01*
X666511Y622858D01*
X666555Y622994D01*
X666596Y623131D01*
X666633Y623269D01*
X666666Y623408D01*
X666696Y623548D01*
X666721Y623689D01*
X666743Y623831D01*
X666760Y623973D01*
X666774Y624115D01*
X666784Y624258D01*
X666790Y624401D01*
X666792Y624544D01*
X641792Y596565D02*
X630108Y596565D01*
X641792Y596565D02*
X641792Y599810D01*
X641790Y599923D01*
X641784Y600036D01*
X641774Y600149D01*
X641760Y600262D01*
X641743Y600374D01*
X641721Y600485D01*
X641696Y600595D01*
X641666Y600705D01*
X641633Y600813D01*
X641596Y600920D01*
X641556Y601026D01*
X641511Y601130D01*
X641463Y601233D01*
X641412Y601334D01*
X641357Y601433D01*
X641299Y601530D01*
X641237Y601625D01*
X641172Y601718D01*
X641104Y601808D01*
X641033Y601896D01*
X640958Y601982D01*
X640881Y602065D01*
X640801Y602145D01*
X640718Y602222D01*
X640632Y602297D01*
X640544Y602368D01*
X640454Y602436D01*
X640361Y602501D01*
X640266Y602563D01*
X640169Y602621D01*
X640070Y602676D01*
X639969Y602727D01*
X639866Y602775D01*
X639762Y602820D01*
X639656Y602860D01*
X639549Y602897D01*
X639441Y602930D01*
X639331Y602960D01*
X639221Y602985D01*
X639110Y603007D01*
X638998Y603024D01*
X638885Y603038D01*
X638772Y603048D01*
X638659Y603054D01*
X638546Y603056D01*
X638433Y603054D01*
X638320Y603048D01*
X638207Y603038D01*
X638094Y603024D01*
X637982Y603007D01*
X637871Y602985D01*
X637761Y602960D01*
X637651Y602930D01*
X637543Y602897D01*
X637436Y602860D01*
X637330Y602820D01*
X637226Y602775D01*
X637123Y602727D01*
X637022Y602676D01*
X636923Y602621D01*
X636826Y602563D01*
X636731Y602501D01*
X636638Y602436D01*
X636548Y602368D01*
X636460Y602297D01*
X636374Y602222D01*
X636291Y602145D01*
X636211Y602065D01*
X636134Y601982D01*
X636059Y601896D01*
X635988Y601808D01*
X635920Y601718D01*
X635855Y601625D01*
X635793Y601530D01*
X635735Y601433D01*
X635680Y601334D01*
X635629Y601233D01*
X635581Y601130D01*
X635536Y601026D01*
X635496Y600920D01*
X635459Y600813D01*
X635426Y600705D01*
X635396Y600595D01*
X635371Y600485D01*
X635349Y600374D01*
X635332Y600262D01*
X635318Y600149D01*
X635308Y600036D01*
X635302Y599923D01*
X635300Y599810D01*
X635301Y599810D02*
X635301Y596565D01*
X635301Y600459D02*
X630108Y603056D01*
X639196Y607921D02*
X641792Y611166D01*
X630108Y611166D01*
X630108Y607921D02*
X630108Y614412D01*
X633354Y619350D02*
X633467Y619352D01*
X633580Y619358D01*
X633693Y619368D01*
X633806Y619382D01*
X633918Y619399D01*
X634029Y619421D01*
X634139Y619446D01*
X634249Y619476D01*
X634357Y619509D01*
X634464Y619546D01*
X634570Y619586D01*
X634674Y619631D01*
X634777Y619679D01*
X634878Y619730D01*
X634977Y619785D01*
X635074Y619843D01*
X635169Y619905D01*
X635262Y619970D01*
X635352Y620038D01*
X635440Y620109D01*
X635526Y620184D01*
X635609Y620261D01*
X635689Y620341D01*
X635766Y620424D01*
X635841Y620510D01*
X635912Y620598D01*
X635980Y620688D01*
X636045Y620781D01*
X636107Y620876D01*
X636165Y620973D01*
X636220Y621072D01*
X636271Y621173D01*
X636319Y621276D01*
X636364Y621380D01*
X636404Y621486D01*
X636441Y621593D01*
X636474Y621701D01*
X636504Y621811D01*
X636529Y621921D01*
X636551Y622032D01*
X636568Y622144D01*
X636582Y622257D01*
X636592Y622370D01*
X636598Y622483D01*
X636600Y622596D01*
X636598Y622709D01*
X636592Y622822D01*
X636582Y622935D01*
X636568Y623048D01*
X636551Y623160D01*
X636529Y623271D01*
X636504Y623381D01*
X636474Y623491D01*
X636441Y623599D01*
X636404Y623706D01*
X636364Y623812D01*
X636319Y623916D01*
X636271Y624019D01*
X636220Y624120D01*
X636165Y624219D01*
X636107Y624316D01*
X636045Y624411D01*
X635980Y624504D01*
X635912Y624594D01*
X635841Y624682D01*
X635766Y624768D01*
X635689Y624851D01*
X635609Y624931D01*
X635526Y625008D01*
X635440Y625083D01*
X635352Y625154D01*
X635262Y625222D01*
X635169Y625287D01*
X635074Y625349D01*
X634977Y625407D01*
X634878Y625462D01*
X634777Y625513D01*
X634674Y625561D01*
X634570Y625606D01*
X634464Y625646D01*
X634357Y625683D01*
X634249Y625716D01*
X634139Y625746D01*
X634029Y625771D01*
X633918Y625793D01*
X633806Y625810D01*
X633693Y625824D01*
X633580Y625834D01*
X633467Y625840D01*
X633354Y625842D01*
X633241Y625840D01*
X633128Y625834D01*
X633015Y625824D01*
X632902Y625810D01*
X632790Y625793D01*
X632679Y625771D01*
X632569Y625746D01*
X632459Y625716D01*
X632351Y625683D01*
X632244Y625646D01*
X632138Y625606D01*
X632034Y625561D01*
X631931Y625513D01*
X631830Y625462D01*
X631731Y625407D01*
X631634Y625349D01*
X631539Y625287D01*
X631446Y625222D01*
X631356Y625154D01*
X631268Y625083D01*
X631182Y625008D01*
X631099Y624931D01*
X631019Y624851D01*
X630942Y624768D01*
X630867Y624682D01*
X630796Y624594D01*
X630728Y624504D01*
X630663Y624411D01*
X630601Y624316D01*
X630543Y624219D01*
X630488Y624120D01*
X630437Y624019D01*
X630389Y623916D01*
X630344Y623812D01*
X630304Y623706D01*
X630267Y623599D01*
X630234Y623491D01*
X630204Y623381D01*
X630179Y623271D01*
X630157Y623160D01*
X630140Y623048D01*
X630126Y622935D01*
X630116Y622822D01*
X630110Y622709D01*
X630108Y622596D01*
X630110Y622483D01*
X630116Y622370D01*
X630126Y622257D01*
X630140Y622144D01*
X630157Y622032D01*
X630179Y621921D01*
X630204Y621811D01*
X630234Y621701D01*
X630267Y621593D01*
X630304Y621486D01*
X630344Y621380D01*
X630389Y621276D01*
X630437Y621173D01*
X630488Y621072D01*
X630543Y620973D01*
X630601Y620876D01*
X630663Y620781D01*
X630728Y620688D01*
X630796Y620598D01*
X630867Y620510D01*
X630942Y620424D01*
X631019Y620341D01*
X631099Y620261D01*
X631182Y620184D01*
X631268Y620109D01*
X631356Y620038D01*
X631446Y619970D01*
X631539Y619905D01*
X631634Y619843D01*
X631731Y619785D01*
X631830Y619730D01*
X631931Y619679D01*
X632034Y619631D01*
X632138Y619586D01*
X632244Y619546D01*
X632351Y619509D01*
X632459Y619476D01*
X632569Y619446D01*
X632679Y619421D01*
X632790Y619399D01*
X632902Y619382D01*
X633015Y619368D01*
X633128Y619358D01*
X633241Y619352D01*
X633354Y619350D01*
X639196Y620000D02*
X639297Y620002D01*
X639397Y620008D01*
X639497Y620018D01*
X639597Y620031D01*
X639696Y620049D01*
X639795Y620070D01*
X639892Y620095D01*
X639989Y620124D01*
X640084Y620157D01*
X640178Y620193D01*
X640270Y620233D01*
X640361Y620276D01*
X640450Y620323D01*
X640537Y620373D01*
X640623Y620427D01*
X640706Y620484D01*
X640786Y620544D01*
X640865Y620607D01*
X640941Y620674D01*
X641014Y620743D01*
X641084Y620815D01*
X641152Y620889D01*
X641217Y620966D01*
X641278Y621046D01*
X641337Y621128D01*
X641392Y621212D01*
X641444Y621298D01*
X641493Y621386D01*
X641538Y621476D01*
X641580Y621568D01*
X641618Y621661D01*
X641652Y621756D01*
X641683Y621851D01*
X641710Y621948D01*
X641733Y622046D01*
X641753Y622145D01*
X641768Y622245D01*
X641780Y622345D01*
X641788Y622445D01*
X641792Y622546D01*
X641792Y622646D01*
X641788Y622747D01*
X641780Y622847D01*
X641768Y622947D01*
X641753Y623047D01*
X641733Y623146D01*
X641710Y623244D01*
X641683Y623341D01*
X641652Y623436D01*
X641618Y623531D01*
X641580Y623624D01*
X641538Y623716D01*
X641493Y623806D01*
X641444Y623894D01*
X641392Y623980D01*
X641337Y624064D01*
X641278Y624146D01*
X641217Y624226D01*
X641152Y624303D01*
X641084Y624377D01*
X641014Y624449D01*
X640941Y624518D01*
X640865Y624585D01*
X640786Y624648D01*
X640706Y624708D01*
X640623Y624765D01*
X640537Y624819D01*
X640450Y624869D01*
X640361Y624916D01*
X640270Y624959D01*
X640178Y624999D01*
X640084Y625035D01*
X639989Y625068D01*
X639892Y625097D01*
X639795Y625122D01*
X639696Y625143D01*
X639597Y625161D01*
X639497Y625174D01*
X639397Y625184D01*
X639297Y625190D01*
X639196Y625192D01*
X639095Y625190D01*
X638995Y625184D01*
X638895Y625174D01*
X638795Y625161D01*
X638696Y625143D01*
X638597Y625122D01*
X638500Y625097D01*
X638403Y625068D01*
X638308Y625035D01*
X638214Y624999D01*
X638122Y624959D01*
X638031Y624916D01*
X637942Y624869D01*
X637855Y624819D01*
X637769Y624765D01*
X637686Y624708D01*
X637606Y624648D01*
X637527Y624585D01*
X637451Y624518D01*
X637378Y624449D01*
X637308Y624377D01*
X637240Y624303D01*
X637175Y624226D01*
X637114Y624146D01*
X637055Y624064D01*
X637000Y623980D01*
X636948Y623894D01*
X636899Y623806D01*
X636854Y623716D01*
X636812Y623624D01*
X636774Y623531D01*
X636740Y623436D01*
X636709Y623341D01*
X636682Y623244D01*
X636659Y623146D01*
X636639Y623047D01*
X636624Y622947D01*
X636612Y622847D01*
X636604Y622747D01*
X636600Y622646D01*
X636600Y622546D01*
X636604Y622445D01*
X636612Y622345D01*
X636624Y622245D01*
X636639Y622145D01*
X636659Y622046D01*
X636682Y621948D01*
X636709Y621851D01*
X636740Y621756D01*
X636774Y621661D01*
X636812Y621568D01*
X636854Y621476D01*
X636899Y621386D01*
X636948Y621298D01*
X637000Y621212D01*
X637055Y621128D01*
X637114Y621046D01*
X637175Y620966D01*
X637240Y620889D01*
X637308Y620815D01*
X637378Y620743D01*
X637451Y620674D01*
X637527Y620607D01*
X637606Y620544D01*
X637686Y620484D01*
X637769Y620427D01*
X637855Y620373D01*
X637942Y620323D01*
X638031Y620276D01*
X638122Y620233D01*
X638214Y620193D01*
X638308Y620157D01*
X638403Y620124D01*
X638500Y620095D01*
X638597Y620070D01*
X638696Y620049D01*
X638795Y620031D01*
X638895Y620018D01*
X638995Y620008D01*
X639095Y620002D01*
X639196Y620000D01*
X616792Y596565D02*
X605108Y596565D01*
X616792Y596565D02*
X616792Y599810D01*
X616790Y599923D01*
X616784Y600036D01*
X616774Y600149D01*
X616760Y600262D01*
X616743Y600374D01*
X616721Y600485D01*
X616696Y600595D01*
X616666Y600705D01*
X616633Y600813D01*
X616596Y600920D01*
X616556Y601026D01*
X616511Y601130D01*
X616463Y601233D01*
X616412Y601334D01*
X616357Y601433D01*
X616299Y601530D01*
X616237Y601625D01*
X616172Y601718D01*
X616104Y601808D01*
X616033Y601896D01*
X615958Y601982D01*
X615881Y602065D01*
X615801Y602145D01*
X615718Y602222D01*
X615632Y602297D01*
X615544Y602368D01*
X615454Y602436D01*
X615361Y602501D01*
X615266Y602563D01*
X615169Y602621D01*
X615070Y602676D01*
X614969Y602727D01*
X614866Y602775D01*
X614762Y602820D01*
X614656Y602860D01*
X614549Y602897D01*
X614441Y602930D01*
X614331Y602960D01*
X614221Y602985D01*
X614110Y603007D01*
X613998Y603024D01*
X613885Y603038D01*
X613772Y603048D01*
X613659Y603054D01*
X613546Y603056D01*
X613433Y603054D01*
X613320Y603048D01*
X613207Y603038D01*
X613094Y603024D01*
X612982Y603007D01*
X612871Y602985D01*
X612761Y602960D01*
X612651Y602930D01*
X612543Y602897D01*
X612436Y602860D01*
X612330Y602820D01*
X612226Y602775D01*
X612123Y602727D01*
X612022Y602676D01*
X611923Y602621D01*
X611826Y602563D01*
X611731Y602501D01*
X611638Y602436D01*
X611548Y602368D01*
X611460Y602297D01*
X611374Y602222D01*
X611291Y602145D01*
X611211Y602065D01*
X611134Y601982D01*
X611059Y601896D01*
X610988Y601808D01*
X610920Y601718D01*
X610855Y601625D01*
X610793Y601530D01*
X610735Y601433D01*
X610680Y601334D01*
X610629Y601233D01*
X610581Y601130D01*
X610536Y601026D01*
X610496Y600920D01*
X610459Y600813D01*
X610426Y600705D01*
X610396Y600595D01*
X610371Y600485D01*
X610349Y600374D01*
X610332Y600262D01*
X610318Y600149D01*
X610308Y600036D01*
X610302Y599923D01*
X610300Y599810D01*
X610301Y599810D02*
X610301Y596565D01*
X610301Y600459D02*
X605108Y603056D01*
X614196Y607921D02*
X616792Y611166D01*
X605108Y611166D01*
X605108Y607921D02*
X605108Y614412D01*
X610301Y621947D02*
X610301Y625842D01*
X610301Y621947D02*
X610303Y621848D01*
X610309Y621748D01*
X610318Y621649D01*
X610331Y621551D01*
X610348Y621453D01*
X610369Y621355D01*
X610394Y621259D01*
X610422Y621164D01*
X610454Y621070D01*
X610489Y620977D01*
X610528Y620885D01*
X610571Y620795D01*
X610616Y620707D01*
X610666Y620620D01*
X610718Y620536D01*
X610774Y620453D01*
X610832Y620373D01*
X610894Y620295D01*
X610959Y620220D01*
X611027Y620147D01*
X611097Y620077D01*
X611170Y620009D01*
X611245Y619944D01*
X611323Y619882D01*
X611403Y619824D01*
X611486Y619768D01*
X611570Y619716D01*
X611657Y619666D01*
X611745Y619621D01*
X611835Y619578D01*
X611927Y619539D01*
X612020Y619504D01*
X612114Y619472D01*
X612209Y619444D01*
X612305Y619419D01*
X612403Y619398D01*
X612501Y619381D01*
X612599Y619368D01*
X612698Y619359D01*
X612798Y619353D01*
X612897Y619351D01*
X613546Y619351D01*
X613546Y619350D02*
X613659Y619352D01*
X613772Y619358D01*
X613885Y619368D01*
X613998Y619382D01*
X614110Y619399D01*
X614221Y619421D01*
X614331Y619446D01*
X614441Y619476D01*
X614549Y619509D01*
X614656Y619546D01*
X614762Y619586D01*
X614866Y619631D01*
X614969Y619679D01*
X615070Y619730D01*
X615169Y619785D01*
X615266Y619843D01*
X615361Y619905D01*
X615454Y619970D01*
X615544Y620038D01*
X615632Y620109D01*
X615718Y620184D01*
X615801Y620261D01*
X615881Y620341D01*
X615958Y620424D01*
X616033Y620510D01*
X616104Y620598D01*
X616172Y620688D01*
X616237Y620781D01*
X616299Y620876D01*
X616357Y620973D01*
X616412Y621072D01*
X616463Y621173D01*
X616511Y621276D01*
X616556Y621380D01*
X616596Y621486D01*
X616633Y621593D01*
X616666Y621701D01*
X616696Y621811D01*
X616721Y621921D01*
X616743Y622032D01*
X616760Y622144D01*
X616774Y622257D01*
X616784Y622370D01*
X616790Y622483D01*
X616792Y622596D01*
X616790Y622709D01*
X616784Y622822D01*
X616774Y622935D01*
X616760Y623048D01*
X616743Y623160D01*
X616721Y623271D01*
X616696Y623381D01*
X616666Y623491D01*
X616633Y623599D01*
X616596Y623706D01*
X616556Y623812D01*
X616511Y623916D01*
X616463Y624019D01*
X616412Y624120D01*
X616357Y624219D01*
X616299Y624316D01*
X616237Y624411D01*
X616172Y624504D01*
X616104Y624594D01*
X616033Y624682D01*
X615958Y624768D01*
X615881Y624851D01*
X615801Y624931D01*
X615718Y625008D01*
X615632Y625083D01*
X615544Y625154D01*
X615454Y625222D01*
X615361Y625287D01*
X615266Y625349D01*
X615169Y625407D01*
X615070Y625462D01*
X614969Y625513D01*
X614866Y625561D01*
X614762Y625606D01*
X614656Y625646D01*
X614549Y625683D01*
X614441Y625716D01*
X614331Y625746D01*
X614221Y625771D01*
X614110Y625793D01*
X613998Y625810D01*
X613885Y625824D01*
X613772Y625834D01*
X613659Y625840D01*
X613546Y625842D01*
X610301Y625842D01*
X610158Y625840D01*
X610015Y625834D01*
X609872Y625824D01*
X609730Y625810D01*
X609588Y625793D01*
X609446Y625771D01*
X609305Y625746D01*
X609165Y625716D01*
X609026Y625683D01*
X608888Y625646D01*
X608751Y625605D01*
X608615Y625561D01*
X608480Y625512D01*
X608347Y625460D01*
X608215Y625405D01*
X608085Y625345D01*
X607956Y625282D01*
X607829Y625216D01*
X607705Y625146D01*
X607582Y625073D01*
X607461Y624996D01*
X607342Y624916D01*
X607226Y624833D01*
X607111Y624747D01*
X607000Y624658D01*
X606890Y624565D01*
X606784Y624470D01*
X606680Y624371D01*
X606579Y624270D01*
X606480Y624166D01*
X606385Y624060D01*
X606292Y623950D01*
X606203Y623839D01*
X606117Y623724D01*
X606034Y623608D01*
X605954Y623489D01*
X605877Y623368D01*
X605804Y623246D01*
X605734Y623121D01*
X605668Y622994D01*
X605605Y622865D01*
X605545Y622735D01*
X605490Y622603D01*
X605438Y622470D01*
X605389Y622335D01*
X605345Y622199D01*
X605304Y622062D01*
X605267Y621924D01*
X605234Y621785D01*
X605204Y621645D01*
X605179Y621504D01*
X605157Y621362D01*
X605140Y621220D01*
X605126Y621078D01*
X605116Y620935D01*
X605110Y620792D01*
X605108Y620649D01*
X752192Y624892D02*
X752192Y613208D01*
X752192Y624892D02*
X748946Y624892D01*
X748833Y624890D01*
X748720Y624884D01*
X748607Y624874D01*
X748494Y624860D01*
X748382Y624843D01*
X748271Y624821D01*
X748161Y624796D01*
X748051Y624766D01*
X747943Y624733D01*
X747836Y624696D01*
X747730Y624656D01*
X747626Y624611D01*
X747523Y624563D01*
X747422Y624512D01*
X747323Y624457D01*
X747226Y624399D01*
X747131Y624337D01*
X747038Y624272D01*
X746948Y624204D01*
X746860Y624133D01*
X746774Y624058D01*
X746691Y623981D01*
X746611Y623901D01*
X746534Y623818D01*
X746459Y623732D01*
X746388Y623644D01*
X746320Y623554D01*
X746255Y623461D01*
X746193Y623366D01*
X746135Y623269D01*
X746080Y623170D01*
X746029Y623069D01*
X745981Y622966D01*
X745936Y622862D01*
X745896Y622756D01*
X745859Y622649D01*
X745826Y622541D01*
X745796Y622431D01*
X745771Y622321D01*
X745749Y622210D01*
X745732Y622098D01*
X745718Y621985D01*
X745708Y621872D01*
X745702Y621759D01*
X745700Y621646D01*
X745702Y621533D01*
X745708Y621420D01*
X745718Y621307D01*
X745732Y621194D01*
X745749Y621082D01*
X745771Y620971D01*
X745796Y620861D01*
X745826Y620751D01*
X745859Y620643D01*
X745896Y620536D01*
X745936Y620430D01*
X745981Y620326D01*
X746029Y620223D01*
X746080Y620122D01*
X746135Y620023D01*
X746193Y619926D01*
X746255Y619831D01*
X746320Y619738D01*
X746388Y619648D01*
X746459Y619560D01*
X746534Y619474D01*
X746611Y619391D01*
X746691Y619311D01*
X746774Y619234D01*
X746860Y619159D01*
X746948Y619088D01*
X747038Y619020D01*
X747131Y618955D01*
X747226Y618893D01*
X747323Y618835D01*
X747422Y618780D01*
X747523Y618729D01*
X747626Y618681D01*
X747730Y618636D01*
X747836Y618596D01*
X747943Y618559D01*
X748051Y618526D01*
X748161Y618496D01*
X748271Y618471D01*
X748382Y618449D01*
X748494Y618432D01*
X748607Y618418D01*
X748720Y618408D01*
X748833Y618402D01*
X748946Y618400D01*
X748946Y618401D02*
X752192Y618401D01*
X748297Y618401D02*
X745701Y613208D01*
X740836Y622296D02*
X737590Y624892D01*
X737590Y613208D01*
X734345Y613208D02*
X740836Y613208D01*
X725836Y624892D02*
X725729Y624890D01*
X725623Y624884D01*
X725517Y624874D01*
X725411Y624861D01*
X725305Y624843D01*
X725201Y624822D01*
X725097Y624797D01*
X724994Y624768D01*
X724893Y624736D01*
X724793Y624699D01*
X724694Y624659D01*
X724596Y624616D01*
X724500Y624569D01*
X724406Y624518D01*
X724314Y624464D01*
X724224Y624407D01*
X724136Y624347D01*
X724051Y624283D01*
X723968Y624216D01*
X723887Y624146D01*
X723809Y624074D01*
X723733Y623998D01*
X723661Y623920D01*
X723591Y623839D01*
X723524Y623756D01*
X723460Y623671D01*
X723400Y623583D01*
X723343Y623493D01*
X723289Y623401D01*
X723238Y623307D01*
X723191Y623211D01*
X723148Y623113D01*
X723108Y623014D01*
X723071Y622914D01*
X723039Y622813D01*
X723010Y622710D01*
X722985Y622606D01*
X722964Y622502D01*
X722946Y622396D01*
X722933Y622290D01*
X722923Y622184D01*
X722917Y622078D01*
X722915Y621971D01*
X725836Y624892D02*
X725957Y624890D01*
X726078Y624884D01*
X726198Y624874D01*
X726319Y624861D01*
X726438Y624843D01*
X726558Y624822D01*
X726676Y624797D01*
X726793Y624768D01*
X726910Y624735D01*
X727025Y624699D01*
X727139Y624658D01*
X727252Y624615D01*
X727364Y624567D01*
X727473Y624516D01*
X727581Y624461D01*
X727688Y624403D01*
X727792Y624342D01*
X727894Y624277D01*
X727994Y624209D01*
X728092Y624138D01*
X728188Y624064D01*
X728281Y623987D01*
X728371Y623906D01*
X728459Y623823D01*
X728544Y623737D01*
X728627Y623648D01*
X728706Y623557D01*
X728783Y623463D01*
X728856Y623367D01*
X728926Y623269D01*
X728993Y623168D01*
X729057Y623065D01*
X729118Y622960D01*
X729175Y622853D01*
X729228Y622745D01*
X729278Y622635D01*
X729324Y622523D01*
X729367Y622410D01*
X729406Y622295D01*
X723889Y619699D02*
X723810Y619777D01*
X723734Y619857D01*
X723661Y619940D01*
X723591Y620026D01*
X723524Y620113D01*
X723460Y620204D01*
X723400Y620296D01*
X723342Y620390D01*
X723288Y620487D01*
X723238Y620585D01*
X723191Y620685D01*
X723147Y620786D01*
X723107Y620889D01*
X723071Y620994D01*
X723039Y621099D01*
X723010Y621206D01*
X722985Y621313D01*
X722963Y621422D01*
X722946Y621531D01*
X722932Y621640D01*
X722923Y621750D01*
X722917Y621861D01*
X722915Y621971D01*
X723888Y619699D02*
X729406Y613208D01*
X722915Y613208D01*
X287192Y658208D02*
X287192Y669892D01*
X283946Y669892D01*
X283833Y669890D01*
X283720Y669884D01*
X283607Y669874D01*
X283494Y669860D01*
X283382Y669843D01*
X283271Y669821D01*
X283161Y669796D01*
X283051Y669766D01*
X282943Y669733D01*
X282836Y669696D01*
X282730Y669656D01*
X282626Y669611D01*
X282523Y669563D01*
X282422Y669512D01*
X282323Y669457D01*
X282226Y669399D01*
X282131Y669337D01*
X282038Y669272D01*
X281948Y669204D01*
X281860Y669133D01*
X281774Y669058D01*
X281691Y668981D01*
X281611Y668901D01*
X281534Y668818D01*
X281459Y668732D01*
X281388Y668644D01*
X281320Y668554D01*
X281255Y668461D01*
X281193Y668366D01*
X281135Y668269D01*
X281080Y668170D01*
X281029Y668069D01*
X280981Y667966D01*
X280936Y667862D01*
X280896Y667756D01*
X280859Y667649D01*
X280826Y667541D01*
X280796Y667431D01*
X280771Y667321D01*
X280749Y667210D01*
X280732Y667098D01*
X280718Y666985D01*
X280708Y666872D01*
X280702Y666759D01*
X280700Y666646D01*
X280702Y666533D01*
X280708Y666420D01*
X280718Y666307D01*
X280732Y666194D01*
X280749Y666082D01*
X280771Y665971D01*
X280796Y665861D01*
X280826Y665751D01*
X280859Y665643D01*
X280896Y665536D01*
X280936Y665430D01*
X280981Y665326D01*
X281029Y665223D01*
X281080Y665122D01*
X281135Y665023D01*
X281193Y664926D01*
X281255Y664831D01*
X281320Y664738D01*
X281388Y664648D01*
X281459Y664560D01*
X281534Y664474D01*
X281611Y664391D01*
X281691Y664311D01*
X281774Y664234D01*
X281860Y664159D01*
X281948Y664088D01*
X282038Y664020D01*
X282131Y663955D01*
X282226Y663893D01*
X282323Y663835D01*
X282422Y663780D01*
X282523Y663729D01*
X282626Y663681D01*
X282730Y663636D01*
X282836Y663596D01*
X282943Y663559D01*
X283051Y663526D01*
X283161Y663496D01*
X283271Y663471D01*
X283382Y663449D01*
X283494Y663432D01*
X283607Y663418D01*
X283720Y663408D01*
X283833Y663402D01*
X283946Y663400D01*
X283946Y663401D02*
X287192Y663401D01*
X283297Y663401D02*
X280701Y658208D01*
X275836Y661454D02*
X275834Y661567D01*
X275828Y661680D01*
X275818Y661793D01*
X275804Y661906D01*
X275787Y662018D01*
X275765Y662129D01*
X275740Y662239D01*
X275710Y662349D01*
X275677Y662457D01*
X275640Y662564D01*
X275600Y662670D01*
X275555Y662774D01*
X275507Y662877D01*
X275456Y662978D01*
X275401Y663077D01*
X275343Y663174D01*
X275281Y663269D01*
X275216Y663362D01*
X275148Y663452D01*
X275077Y663540D01*
X275002Y663626D01*
X274925Y663709D01*
X274845Y663789D01*
X274762Y663866D01*
X274676Y663941D01*
X274588Y664012D01*
X274498Y664080D01*
X274405Y664145D01*
X274310Y664207D01*
X274213Y664265D01*
X274114Y664320D01*
X274013Y664371D01*
X273910Y664419D01*
X273806Y664464D01*
X273700Y664504D01*
X273593Y664541D01*
X273485Y664574D01*
X273375Y664604D01*
X273265Y664629D01*
X273154Y664651D01*
X273042Y664668D01*
X272929Y664682D01*
X272816Y664692D01*
X272703Y664698D01*
X272590Y664700D01*
X272477Y664698D01*
X272364Y664692D01*
X272251Y664682D01*
X272138Y664668D01*
X272026Y664651D01*
X271915Y664629D01*
X271805Y664604D01*
X271695Y664574D01*
X271587Y664541D01*
X271480Y664504D01*
X271374Y664464D01*
X271270Y664419D01*
X271167Y664371D01*
X271066Y664320D01*
X270967Y664265D01*
X270870Y664207D01*
X270775Y664145D01*
X270682Y664080D01*
X270592Y664012D01*
X270504Y663941D01*
X270418Y663866D01*
X270335Y663789D01*
X270255Y663709D01*
X270178Y663626D01*
X270103Y663540D01*
X270032Y663452D01*
X269964Y663362D01*
X269899Y663269D01*
X269837Y663174D01*
X269779Y663077D01*
X269724Y662978D01*
X269673Y662877D01*
X269625Y662774D01*
X269580Y662670D01*
X269540Y662564D01*
X269503Y662457D01*
X269470Y662349D01*
X269440Y662239D01*
X269415Y662129D01*
X269393Y662018D01*
X269376Y661906D01*
X269362Y661793D01*
X269352Y661680D01*
X269346Y661567D01*
X269344Y661454D01*
X269346Y661341D01*
X269352Y661228D01*
X269362Y661115D01*
X269376Y661002D01*
X269393Y660890D01*
X269415Y660779D01*
X269440Y660669D01*
X269470Y660559D01*
X269503Y660451D01*
X269540Y660344D01*
X269580Y660238D01*
X269625Y660134D01*
X269673Y660031D01*
X269724Y659930D01*
X269779Y659831D01*
X269837Y659734D01*
X269899Y659639D01*
X269964Y659546D01*
X270032Y659456D01*
X270103Y659368D01*
X270178Y659282D01*
X270255Y659199D01*
X270335Y659119D01*
X270418Y659042D01*
X270504Y658967D01*
X270592Y658896D01*
X270682Y658828D01*
X270775Y658763D01*
X270870Y658701D01*
X270967Y658643D01*
X271066Y658588D01*
X271167Y658537D01*
X271270Y658489D01*
X271374Y658444D01*
X271480Y658404D01*
X271587Y658367D01*
X271695Y658334D01*
X271805Y658304D01*
X271915Y658279D01*
X272026Y658257D01*
X272138Y658240D01*
X272251Y658226D01*
X272364Y658216D01*
X272477Y658210D01*
X272590Y658208D01*
X272703Y658210D01*
X272816Y658216D01*
X272929Y658226D01*
X273042Y658240D01*
X273154Y658257D01*
X273265Y658279D01*
X273375Y658304D01*
X273485Y658334D01*
X273593Y658367D01*
X273700Y658404D01*
X273806Y658444D01*
X273910Y658489D01*
X274013Y658537D01*
X274114Y658588D01*
X274213Y658643D01*
X274310Y658701D01*
X274405Y658763D01*
X274498Y658828D01*
X274588Y658896D01*
X274676Y658967D01*
X274762Y659042D01*
X274845Y659119D01*
X274925Y659199D01*
X275002Y659282D01*
X275077Y659368D01*
X275148Y659456D01*
X275216Y659546D01*
X275281Y659639D01*
X275343Y659734D01*
X275401Y659831D01*
X275456Y659930D01*
X275507Y660031D01*
X275555Y660134D01*
X275600Y660238D01*
X275640Y660344D01*
X275677Y660451D01*
X275710Y660559D01*
X275740Y660669D01*
X275765Y660779D01*
X275787Y660890D01*
X275804Y661002D01*
X275818Y661115D01*
X275828Y661228D01*
X275834Y661341D01*
X275836Y661454D01*
X275186Y667296D02*
X275184Y667397D01*
X275178Y667497D01*
X275168Y667597D01*
X275155Y667697D01*
X275137Y667796D01*
X275116Y667895D01*
X275091Y667992D01*
X275062Y668089D01*
X275029Y668184D01*
X274993Y668278D01*
X274953Y668370D01*
X274910Y668461D01*
X274863Y668550D01*
X274813Y668637D01*
X274759Y668723D01*
X274702Y668806D01*
X274642Y668886D01*
X274579Y668965D01*
X274512Y669041D01*
X274443Y669114D01*
X274371Y669184D01*
X274297Y669252D01*
X274220Y669317D01*
X274140Y669378D01*
X274058Y669437D01*
X273974Y669492D01*
X273888Y669544D01*
X273800Y669593D01*
X273710Y669638D01*
X273618Y669680D01*
X273525Y669718D01*
X273430Y669752D01*
X273335Y669783D01*
X273238Y669810D01*
X273140Y669833D01*
X273041Y669853D01*
X272941Y669868D01*
X272841Y669880D01*
X272741Y669888D01*
X272640Y669892D01*
X272540Y669892D01*
X272439Y669888D01*
X272339Y669880D01*
X272239Y669868D01*
X272139Y669853D01*
X272040Y669833D01*
X271942Y669810D01*
X271845Y669783D01*
X271750Y669752D01*
X271655Y669718D01*
X271562Y669680D01*
X271470Y669638D01*
X271380Y669593D01*
X271292Y669544D01*
X271206Y669492D01*
X271122Y669437D01*
X271040Y669378D01*
X270960Y669317D01*
X270883Y669252D01*
X270809Y669184D01*
X270737Y669114D01*
X270668Y669041D01*
X270601Y668965D01*
X270538Y668886D01*
X270478Y668806D01*
X270421Y668723D01*
X270367Y668637D01*
X270317Y668550D01*
X270270Y668461D01*
X270227Y668370D01*
X270187Y668278D01*
X270151Y668184D01*
X270118Y668089D01*
X270089Y667992D01*
X270064Y667895D01*
X270043Y667796D01*
X270025Y667697D01*
X270012Y667597D01*
X270002Y667497D01*
X269996Y667397D01*
X269994Y667296D01*
X269996Y667195D01*
X270002Y667095D01*
X270012Y666995D01*
X270025Y666895D01*
X270043Y666796D01*
X270064Y666697D01*
X270089Y666600D01*
X270118Y666503D01*
X270151Y666408D01*
X270187Y666314D01*
X270227Y666222D01*
X270270Y666131D01*
X270317Y666042D01*
X270367Y665955D01*
X270421Y665869D01*
X270478Y665786D01*
X270538Y665706D01*
X270601Y665627D01*
X270668Y665551D01*
X270737Y665478D01*
X270809Y665408D01*
X270883Y665340D01*
X270960Y665275D01*
X271040Y665214D01*
X271122Y665155D01*
X271206Y665100D01*
X271292Y665048D01*
X271380Y664999D01*
X271470Y664954D01*
X271562Y664912D01*
X271655Y664874D01*
X271750Y664840D01*
X271845Y664809D01*
X271942Y664782D01*
X272040Y664759D01*
X272139Y664739D01*
X272239Y664724D01*
X272339Y664712D01*
X272439Y664704D01*
X272540Y664700D01*
X272640Y664700D01*
X272741Y664704D01*
X272841Y664712D01*
X272941Y664724D01*
X273041Y664739D01*
X273140Y664759D01*
X273238Y664782D01*
X273335Y664809D01*
X273430Y664840D01*
X273525Y664874D01*
X273618Y664912D01*
X273710Y664954D01*
X273800Y664999D01*
X273888Y665048D01*
X273974Y665100D01*
X274058Y665155D01*
X274140Y665214D01*
X274220Y665275D01*
X274297Y665340D01*
X274371Y665408D01*
X274443Y665478D01*
X274512Y665551D01*
X274579Y665627D01*
X274642Y665706D01*
X274702Y665786D01*
X274759Y665869D01*
X274813Y665955D01*
X274863Y666042D01*
X274910Y666131D01*
X274953Y666222D01*
X274993Y666314D01*
X275029Y666408D01*
X275062Y666503D01*
X275091Y666600D01*
X275116Y666697D01*
X275137Y666796D01*
X275155Y666895D01*
X275168Y666995D01*
X275178Y667095D01*
X275184Y667195D01*
X275186Y667296D01*
X240655Y631792D02*
X240655Y620108D01*
X240655Y631792D02*
X237410Y631792D01*
X237297Y631790D01*
X237184Y631784D01*
X237071Y631774D01*
X236958Y631760D01*
X236846Y631743D01*
X236735Y631721D01*
X236625Y631696D01*
X236515Y631666D01*
X236407Y631633D01*
X236300Y631596D01*
X236194Y631556D01*
X236090Y631511D01*
X235987Y631463D01*
X235886Y631412D01*
X235787Y631357D01*
X235690Y631299D01*
X235595Y631237D01*
X235502Y631172D01*
X235412Y631104D01*
X235324Y631033D01*
X235238Y630958D01*
X235155Y630881D01*
X235075Y630801D01*
X234998Y630718D01*
X234923Y630632D01*
X234852Y630544D01*
X234784Y630454D01*
X234719Y630361D01*
X234657Y630266D01*
X234599Y630169D01*
X234544Y630070D01*
X234493Y629969D01*
X234445Y629866D01*
X234400Y629762D01*
X234360Y629656D01*
X234323Y629549D01*
X234290Y629441D01*
X234260Y629331D01*
X234235Y629221D01*
X234213Y629110D01*
X234196Y628998D01*
X234182Y628885D01*
X234172Y628772D01*
X234166Y628659D01*
X234164Y628546D01*
X234166Y628433D01*
X234172Y628320D01*
X234182Y628207D01*
X234196Y628094D01*
X234213Y627982D01*
X234235Y627871D01*
X234260Y627761D01*
X234290Y627651D01*
X234323Y627543D01*
X234360Y627436D01*
X234400Y627330D01*
X234445Y627226D01*
X234493Y627123D01*
X234544Y627022D01*
X234599Y626923D01*
X234657Y626826D01*
X234719Y626731D01*
X234784Y626638D01*
X234852Y626548D01*
X234923Y626460D01*
X234998Y626374D01*
X235075Y626291D01*
X235155Y626211D01*
X235238Y626134D01*
X235324Y626059D01*
X235412Y625988D01*
X235502Y625920D01*
X235595Y625855D01*
X235690Y625793D01*
X235787Y625735D01*
X235886Y625680D01*
X235987Y625629D01*
X236090Y625581D01*
X236194Y625536D01*
X236300Y625496D01*
X236407Y625459D01*
X236515Y625426D01*
X236625Y625396D01*
X236735Y625371D01*
X236846Y625349D01*
X236958Y625332D01*
X237071Y625318D01*
X237184Y625308D01*
X237297Y625302D01*
X237410Y625300D01*
X237410Y625301D02*
X240655Y625301D01*
X236761Y625301D02*
X234164Y620108D01*
X229299Y630494D02*
X229299Y631792D01*
X222808Y631792D01*
X226054Y620108D01*
X265094Y480108D02*
X267691Y480108D01*
X267790Y480110D01*
X267890Y480116D01*
X267989Y480125D01*
X268087Y480138D01*
X268185Y480155D01*
X268283Y480176D01*
X268379Y480201D01*
X268474Y480229D01*
X268568Y480261D01*
X268661Y480296D01*
X268753Y480335D01*
X268843Y480378D01*
X268931Y480423D01*
X269018Y480473D01*
X269102Y480525D01*
X269185Y480581D01*
X269265Y480639D01*
X269343Y480701D01*
X269418Y480766D01*
X269491Y480834D01*
X269561Y480904D01*
X269629Y480977D01*
X269694Y481052D01*
X269756Y481130D01*
X269814Y481210D01*
X269870Y481293D01*
X269922Y481377D01*
X269972Y481464D01*
X270017Y481552D01*
X270060Y481642D01*
X270099Y481734D01*
X270134Y481827D01*
X270166Y481921D01*
X270194Y482016D01*
X270219Y482112D01*
X270240Y482210D01*
X270257Y482308D01*
X270270Y482406D01*
X270279Y482505D01*
X270285Y482605D01*
X270287Y482704D01*
X270287Y489196D01*
X270285Y489295D01*
X270279Y489395D01*
X270270Y489494D01*
X270257Y489592D01*
X270240Y489690D01*
X270219Y489788D01*
X270194Y489884D01*
X270166Y489979D01*
X270134Y490073D01*
X270099Y490166D01*
X270060Y490258D01*
X270017Y490348D01*
X269972Y490436D01*
X269922Y490523D01*
X269870Y490607D01*
X269814Y490690D01*
X269756Y490770D01*
X269694Y490848D01*
X269629Y490923D01*
X269561Y490996D01*
X269491Y491066D01*
X269418Y491134D01*
X269343Y491199D01*
X269265Y491261D01*
X269185Y491319D01*
X269102Y491375D01*
X269018Y491427D01*
X268931Y491477D01*
X268843Y491522D01*
X268753Y491565D01*
X268661Y491604D01*
X268568Y491639D01*
X268474Y491671D01*
X268379Y491699D01*
X268283Y491724D01*
X268185Y491745D01*
X268087Y491762D01*
X267989Y491775D01*
X267890Y491784D01*
X267790Y491790D01*
X267691Y491792D01*
X265094Y491792D01*
X260729Y489196D02*
X257484Y491792D01*
X257484Y480108D01*
X260729Y480108D02*
X254238Y480108D01*
X249300Y485950D02*
X249297Y486180D01*
X249289Y486410D01*
X249275Y486639D01*
X249256Y486868D01*
X249231Y487097D01*
X249201Y487325D01*
X249166Y487552D01*
X249125Y487778D01*
X249079Y488003D01*
X249027Y488227D01*
X248970Y488450D01*
X248908Y488671D01*
X248840Y488891D01*
X248767Y489109D01*
X248689Y489325D01*
X248606Y489539D01*
X248518Y489752D01*
X248425Y489962D01*
X248326Y490169D01*
X248293Y490259D01*
X248257Y490348D01*
X248217Y490436D01*
X248173Y490521D01*
X248126Y490605D01*
X248076Y490687D01*
X248022Y490767D01*
X247966Y490844D01*
X247906Y490920D01*
X247843Y490993D01*
X247778Y491063D01*
X247709Y491131D01*
X247638Y491195D01*
X247565Y491257D01*
X247489Y491316D01*
X247411Y491372D01*
X247330Y491425D01*
X247248Y491474D01*
X247164Y491520D01*
X247077Y491563D01*
X246990Y491602D01*
X246900Y491638D01*
X246810Y491670D01*
X246718Y491698D01*
X246625Y491723D01*
X246531Y491744D01*
X246437Y491761D01*
X246342Y491775D01*
X246246Y491784D01*
X246150Y491790D01*
X246054Y491792D01*
X245958Y491790D01*
X245862Y491784D01*
X245766Y491775D01*
X245671Y491761D01*
X245577Y491744D01*
X245483Y491723D01*
X245390Y491698D01*
X245298Y491670D01*
X245208Y491638D01*
X245118Y491602D01*
X245031Y491563D01*
X244944Y491520D01*
X244860Y491474D01*
X244778Y491425D01*
X244697Y491372D01*
X244619Y491316D01*
X244543Y491257D01*
X244470Y491195D01*
X244399Y491131D01*
X244330Y491063D01*
X244265Y490993D01*
X244202Y490920D01*
X244142Y490845D01*
X244086Y490767D01*
X244032Y490687D01*
X243982Y490605D01*
X243935Y490521D01*
X243892Y490436D01*
X243851Y490348D01*
X243815Y490259D01*
X243782Y490169D01*
X243683Y489961D01*
X243590Y489751D01*
X243502Y489539D01*
X243419Y489325D01*
X243341Y489108D01*
X243268Y488890D01*
X243200Y488671D01*
X243138Y488449D01*
X243081Y488227D01*
X243029Y488003D01*
X242983Y487778D01*
X242942Y487552D01*
X242907Y487324D01*
X242877Y487097D01*
X242852Y486868D01*
X242833Y486639D01*
X242819Y486410D01*
X242811Y486180D01*
X242808Y485950D01*
X249299Y485950D02*
X249296Y485720D01*
X249288Y485490D01*
X249274Y485261D01*
X249255Y485032D01*
X249230Y484803D01*
X249200Y484575D01*
X249165Y484348D01*
X249124Y484122D01*
X249078Y483897D01*
X249026Y483673D01*
X248969Y483450D01*
X248907Y483229D01*
X248839Y483009D01*
X248766Y482791D01*
X248688Y482575D01*
X248605Y482361D01*
X248517Y482149D01*
X248424Y481938D01*
X248325Y481731D01*
X248326Y481731D02*
X248293Y481641D01*
X248257Y481552D01*
X248216Y481464D01*
X248173Y481379D01*
X248126Y481295D01*
X248076Y481213D01*
X248022Y481133D01*
X247966Y481056D01*
X247906Y480980D01*
X247843Y480907D01*
X247778Y480837D01*
X247709Y480769D01*
X247638Y480705D01*
X247565Y480643D01*
X247489Y480584D01*
X247411Y480528D01*
X247330Y480475D01*
X247248Y480426D01*
X247164Y480380D01*
X247077Y480337D01*
X246990Y480298D01*
X246900Y480262D01*
X246810Y480230D01*
X246718Y480202D01*
X246625Y480177D01*
X246531Y480156D01*
X246437Y480139D01*
X246342Y480125D01*
X246246Y480116D01*
X246150Y480110D01*
X246054Y480108D01*
X243782Y481731D02*
X243683Y481938D01*
X243590Y482149D01*
X243502Y482361D01*
X243419Y482575D01*
X243341Y482791D01*
X243268Y483009D01*
X243200Y483229D01*
X243138Y483450D01*
X243081Y483673D01*
X243029Y483897D01*
X242983Y484122D01*
X242942Y484348D01*
X242907Y484575D01*
X242877Y484803D01*
X242852Y485032D01*
X242833Y485261D01*
X242819Y485490D01*
X242811Y485720D01*
X242808Y485950D01*
X243782Y481731D02*
X243815Y481641D01*
X243851Y481552D01*
X243892Y481464D01*
X243935Y481379D01*
X243982Y481295D01*
X244032Y481213D01*
X244086Y481133D01*
X244142Y481055D01*
X244202Y480980D01*
X244265Y480907D01*
X244330Y480837D01*
X244399Y480769D01*
X244470Y480705D01*
X244543Y480643D01*
X244619Y480584D01*
X244697Y480528D01*
X244778Y480475D01*
X244860Y480426D01*
X244944Y480380D01*
X245031Y480337D01*
X245118Y480298D01*
X245208Y480262D01*
X245298Y480230D01*
X245390Y480202D01*
X245483Y480177D01*
X245577Y480156D01*
X245671Y480139D01*
X245766Y480125D01*
X245862Y480116D01*
X245958Y480110D01*
X246054Y480108D01*
X248650Y482704D02*
X243457Y489196D01*
X253664Y220108D02*
X256261Y220108D01*
X256360Y220110D01*
X256460Y220116D01*
X256559Y220125D01*
X256657Y220138D01*
X256755Y220155D01*
X256853Y220176D01*
X256949Y220201D01*
X257044Y220229D01*
X257138Y220261D01*
X257231Y220296D01*
X257323Y220335D01*
X257413Y220378D01*
X257501Y220423D01*
X257588Y220473D01*
X257672Y220525D01*
X257755Y220581D01*
X257835Y220639D01*
X257913Y220701D01*
X257988Y220766D01*
X258061Y220834D01*
X258131Y220904D01*
X258199Y220977D01*
X258264Y221052D01*
X258326Y221130D01*
X258384Y221210D01*
X258440Y221293D01*
X258492Y221377D01*
X258542Y221464D01*
X258587Y221552D01*
X258630Y221642D01*
X258669Y221734D01*
X258704Y221827D01*
X258736Y221921D01*
X258764Y222016D01*
X258789Y222112D01*
X258810Y222210D01*
X258827Y222308D01*
X258840Y222406D01*
X258849Y222505D01*
X258855Y222605D01*
X258857Y222704D01*
X258857Y229196D01*
X258855Y229295D01*
X258849Y229395D01*
X258840Y229494D01*
X258827Y229592D01*
X258810Y229690D01*
X258789Y229788D01*
X258764Y229884D01*
X258736Y229979D01*
X258704Y230073D01*
X258669Y230166D01*
X258630Y230258D01*
X258587Y230348D01*
X258542Y230436D01*
X258492Y230523D01*
X258440Y230607D01*
X258384Y230690D01*
X258326Y230770D01*
X258264Y230848D01*
X258199Y230923D01*
X258131Y230996D01*
X258061Y231066D01*
X257988Y231134D01*
X257913Y231199D01*
X257835Y231261D01*
X257755Y231319D01*
X257672Y231375D01*
X257588Y231427D01*
X257501Y231477D01*
X257413Y231522D01*
X257323Y231565D01*
X257231Y231604D01*
X257138Y231639D01*
X257044Y231671D01*
X256949Y231699D01*
X256853Y231724D01*
X256755Y231745D01*
X256657Y231762D01*
X256559Y231775D01*
X256460Y231784D01*
X256360Y231790D01*
X256261Y231792D01*
X253664Y231792D01*
X246703Y225301D02*
X242808Y225301D01*
X246703Y225301D02*
X246802Y225303D01*
X246902Y225309D01*
X247001Y225318D01*
X247099Y225331D01*
X247197Y225348D01*
X247295Y225369D01*
X247391Y225394D01*
X247486Y225422D01*
X247580Y225454D01*
X247673Y225489D01*
X247765Y225528D01*
X247855Y225571D01*
X247943Y225616D01*
X248030Y225666D01*
X248114Y225718D01*
X248197Y225774D01*
X248277Y225832D01*
X248355Y225894D01*
X248430Y225959D01*
X248503Y226027D01*
X248573Y226097D01*
X248641Y226170D01*
X248706Y226245D01*
X248768Y226323D01*
X248826Y226403D01*
X248882Y226486D01*
X248934Y226570D01*
X248984Y226657D01*
X249029Y226745D01*
X249072Y226835D01*
X249111Y226927D01*
X249146Y227020D01*
X249178Y227114D01*
X249206Y227209D01*
X249231Y227305D01*
X249252Y227403D01*
X249269Y227501D01*
X249282Y227599D01*
X249291Y227698D01*
X249297Y227798D01*
X249299Y227897D01*
X249299Y228546D01*
X249300Y228546D02*
X249298Y228659D01*
X249292Y228772D01*
X249282Y228885D01*
X249268Y228998D01*
X249251Y229110D01*
X249229Y229221D01*
X249204Y229331D01*
X249174Y229441D01*
X249141Y229549D01*
X249104Y229656D01*
X249064Y229762D01*
X249019Y229866D01*
X248971Y229969D01*
X248920Y230070D01*
X248865Y230169D01*
X248807Y230266D01*
X248745Y230361D01*
X248680Y230454D01*
X248612Y230544D01*
X248541Y230632D01*
X248466Y230718D01*
X248389Y230801D01*
X248309Y230881D01*
X248226Y230958D01*
X248140Y231033D01*
X248052Y231104D01*
X247962Y231172D01*
X247869Y231237D01*
X247774Y231299D01*
X247677Y231357D01*
X247578Y231412D01*
X247477Y231463D01*
X247374Y231511D01*
X247270Y231556D01*
X247164Y231596D01*
X247057Y231633D01*
X246949Y231666D01*
X246839Y231696D01*
X246729Y231721D01*
X246618Y231743D01*
X246506Y231760D01*
X246393Y231774D01*
X246280Y231784D01*
X246167Y231790D01*
X246054Y231792D01*
X245941Y231790D01*
X245828Y231784D01*
X245715Y231774D01*
X245602Y231760D01*
X245490Y231743D01*
X245379Y231721D01*
X245269Y231696D01*
X245159Y231666D01*
X245051Y231633D01*
X244944Y231596D01*
X244838Y231556D01*
X244734Y231511D01*
X244631Y231463D01*
X244530Y231412D01*
X244431Y231357D01*
X244334Y231299D01*
X244239Y231237D01*
X244146Y231172D01*
X244056Y231104D01*
X243968Y231033D01*
X243882Y230958D01*
X243799Y230881D01*
X243719Y230801D01*
X243642Y230718D01*
X243567Y230632D01*
X243496Y230544D01*
X243428Y230454D01*
X243363Y230361D01*
X243301Y230266D01*
X243243Y230169D01*
X243188Y230070D01*
X243137Y229969D01*
X243089Y229866D01*
X243044Y229762D01*
X243004Y229656D01*
X242967Y229549D01*
X242934Y229441D01*
X242904Y229331D01*
X242879Y229221D01*
X242857Y229110D01*
X242840Y228998D01*
X242826Y228885D01*
X242816Y228772D01*
X242810Y228659D01*
X242808Y228546D01*
X242808Y225301D01*
X242810Y225158D01*
X242816Y225015D01*
X242826Y224872D01*
X242840Y224730D01*
X242857Y224588D01*
X242879Y224446D01*
X242904Y224305D01*
X242934Y224165D01*
X242967Y224026D01*
X243004Y223888D01*
X243045Y223751D01*
X243089Y223615D01*
X243138Y223480D01*
X243190Y223347D01*
X243245Y223215D01*
X243305Y223085D01*
X243368Y222956D01*
X243434Y222829D01*
X243504Y222705D01*
X243577Y222582D01*
X243654Y222461D01*
X243734Y222342D01*
X243817Y222226D01*
X243903Y222111D01*
X243992Y222000D01*
X244085Y221890D01*
X244180Y221784D01*
X244279Y221680D01*
X244380Y221579D01*
X244484Y221480D01*
X244590Y221385D01*
X244700Y221292D01*
X244811Y221203D01*
X244926Y221117D01*
X245042Y221034D01*
X245161Y220954D01*
X245282Y220877D01*
X245404Y220804D01*
X245529Y220734D01*
X245656Y220668D01*
X245785Y220605D01*
X245915Y220545D01*
X246047Y220490D01*
X246180Y220438D01*
X246315Y220389D01*
X246451Y220345D01*
X246588Y220304D01*
X246726Y220267D01*
X246865Y220234D01*
X247005Y220204D01*
X247146Y220179D01*
X247288Y220157D01*
X247430Y220140D01*
X247572Y220126D01*
X247715Y220116D01*
X247858Y220110D01*
X248001Y220108D01*
M02*
