G04 EAGLE Gerber RS-274X export*
G75*
%MOMM*%
%FSLAX34Y34*%
%LPD*%
%INSoldermask Top*%
%IPPOS*%
%AMOC8*
5,1,8,0,0,1.08239X$1,22.5*%
G01*
%ADD10C,3.203200*%
%ADD11R,1.503200X1.703200*%
%ADD12R,1.253200X1.283200*%
%ADD13P,3.629037X8X112.500000*%
%ADD14C,3.352800*%
%ADD15P,1.869504X8X112.500000*%
%ADD16R,2.003200X1.803200*%
%ADD17R,1.203200X1.303200*%
%ADD18C,4.800600*%
%ADD19P,5.196121X8X292.500000*%
%ADD20P,5.196121X8X112.500000*%
%ADD21R,1.303200X1.203200*%
%ADD22R,1.678200X0.638200*%
%ADD23R,4.633200X7.503200*%
%ADD24R,1.253200X1.303200*%
%ADD25R,0.803200X1.303200*%
%ADD26C,1.625600*%
%ADD27P,1.759533X8X22.500000*%
%ADD28R,5.203200X5.203200*%
%ADD29R,1.153200X1.203200*%
%ADD30R,1.403200X1.403200*%
%ADD31R,1.503200X1.803200*%
%ADD32R,1.803200X1.503200*%
%ADD33C,2.743200*%
%ADD34P,2.969212X8X202.500000*%
%ADD35P,3.629037X8X292.500000*%
%ADD36R,2.603200X2.603200*%
%ADD37C,1.524000*%
%ADD38C,1.320800*%
%ADD39R,8.533200X5.283200*%
%ADD40R,1.273200X2.363200*%
%ADD41R,11.003200X2.113200*%
%ADD42C,10.203200*%
%ADD43R,1.153200X1.503200*%
%ADD44R,3.453200X1.503200*%
%ADD45R,1.603200X2.803200*%
%ADD46R,0.803200X2.403200*%
%ADD47R,2.403200X1.603200*%
%ADD48R,1.603200X2.403200*%
%ADD49R,1.703200X1.503200*%
%ADD50R,4.003200X1.503200*%
%ADD51C,1.727200*%
%ADD52C,4.430200*%
%ADD53C,4.242200*%
%ADD54C,1.879600*%
%ADD55C,0.959600*%
%ADD56C,0.809600*%


D10*
X35000Y1110000D03*
X35000Y35000D03*
X1915000Y35000D03*
X1915000Y1110000D03*
X980000Y1110000D03*
X980000Y35000D03*
D11*
X454500Y545000D03*
X435500Y545000D03*
D12*
X916250Y515000D03*
X933750Y515000D03*
X916250Y500000D03*
X933750Y500000D03*
D13*
X1645000Y993100D03*
D14*
X1645000Y916900D03*
D15*
X1505000Y880070D03*
X1505000Y1029930D03*
D16*
X1760000Y954000D03*
X1760000Y926000D03*
D17*
X1760000Y1026500D03*
X1760000Y1043500D03*
D13*
X1645000Y793100D03*
D14*
X1645000Y716900D03*
D15*
X1505000Y630070D03*
X1505000Y779930D03*
D16*
X1760000Y781000D03*
X1760000Y809000D03*
D17*
X1765000Y713500D03*
X1765000Y696500D03*
D11*
X454500Y395000D03*
X435500Y395000D03*
D13*
X1645000Y423100D03*
D14*
X1645000Y346900D03*
D15*
X1505000Y370070D03*
X1505000Y519930D03*
D16*
X1755000Y374000D03*
X1755000Y346000D03*
D17*
X1765000Y436500D03*
X1765000Y453500D03*
D13*
X1645000Y223100D03*
D14*
X1645000Y146900D03*
D15*
X1505000Y120070D03*
X1505000Y269930D03*
D16*
X1755000Y216000D03*
X1755000Y244000D03*
D17*
X1760000Y143500D03*
X1760000Y126500D03*
D18*
X845000Y295800D03*
D19*
X845000Y194200D03*
D11*
X514500Y275000D03*
X495500Y275000D03*
D18*
X845000Y854200D03*
D20*
X845000Y955800D03*
D21*
X781500Y675000D03*
X798500Y675000D03*
D11*
X514500Y155000D03*
X495500Y155000D03*
X564500Y465000D03*
X545500Y465000D03*
X564500Y435000D03*
X545500Y435000D03*
D12*
X916250Y650000D03*
X933750Y650000D03*
X916250Y635000D03*
X933750Y635000D03*
D22*
X817120Y641680D03*
X817120Y635320D03*
X817120Y628980D03*
X817120Y622620D03*
X817120Y616280D03*
X817120Y609920D03*
X817120Y603580D03*
X817120Y597220D03*
X817120Y590880D03*
X817120Y584520D03*
X817120Y578180D03*
X817120Y571820D03*
X817120Y565480D03*
X817120Y559120D03*
X817120Y552780D03*
X817120Y546420D03*
X817120Y540080D03*
X817120Y533720D03*
X817120Y527380D03*
X817120Y521020D03*
X817120Y514680D03*
X817120Y508320D03*
X892880Y508320D03*
X892880Y514680D03*
X892880Y521020D03*
X892880Y527380D03*
X892880Y533720D03*
X892880Y540080D03*
X892880Y546420D03*
X892880Y552780D03*
X892880Y559120D03*
X892880Y565480D03*
X892880Y571820D03*
X892880Y578180D03*
X892880Y584520D03*
X892880Y590880D03*
X892880Y597220D03*
X892880Y603580D03*
X892880Y609920D03*
X892880Y616280D03*
X892880Y622620D03*
X892880Y628980D03*
X892880Y635320D03*
X892880Y641680D03*
D23*
X855000Y575000D03*
D24*
X722600Y476500D03*
D25*
X705400Y476500D03*
X705400Y453500D03*
X724600Y453500D03*
D26*
X647112Y784600D02*
X632888Y784600D01*
X632888Y810000D02*
X647112Y810000D01*
X647112Y835400D02*
X632888Y835400D01*
X632888Y735400D02*
X647112Y735400D01*
X647112Y710000D02*
X632888Y710000D01*
X632888Y684600D02*
X647112Y684600D01*
X612112Y467700D02*
X597888Y467700D01*
X597888Y442300D02*
X612112Y442300D01*
X657300Y417112D02*
X657300Y402888D01*
X682700Y402888D02*
X682700Y417112D01*
D27*
X629600Y557300D03*
X629600Y582700D03*
X655000Y557300D03*
X655000Y582700D03*
X680400Y557300D03*
X680400Y582700D03*
D28*
X1230000Y1000000D03*
X1230000Y910000D03*
X1400000Y955000D03*
X1230000Y750000D03*
X1230000Y660000D03*
X1400000Y705000D03*
X1230000Y490000D03*
X1230000Y400000D03*
X1400000Y445000D03*
X1230000Y240000D03*
X1230000Y150000D03*
X1400000Y195000D03*
D29*
X798000Y650000D03*
X782000Y650000D03*
D30*
X595000Y205500D03*
X595000Y184500D03*
X625000Y205500D03*
X625000Y184500D03*
D31*
X454500Y575000D03*
X435500Y575000D03*
D21*
X1740000Y436500D03*
X1740000Y453500D03*
X1740000Y143500D03*
X1740000Y126500D03*
D31*
X454500Y425000D03*
X435500Y425000D03*
X514500Y305000D03*
X495500Y305000D03*
X514500Y185000D03*
X495500Y185000D03*
D21*
X1735000Y1026500D03*
X1735000Y1043500D03*
D32*
X595000Y135500D03*
X595000Y154500D03*
X625000Y135500D03*
X625000Y154500D03*
D21*
X1745000Y713500D03*
X1745000Y696500D03*
D33*
X100400Y880000D03*
D34*
X49600Y880000D03*
D35*
X350400Y924600D03*
D14*
X350400Y1000800D03*
D36*
X219700Y1034600D03*
X175700Y1034600D03*
D26*
X117112Y787300D02*
X102888Y787300D01*
X102888Y812700D02*
X117112Y812700D01*
D37*
X96750Y963796D02*
X96750Y977004D01*
X58650Y977004D02*
X58650Y963796D01*
D38*
X102700Y1035400D03*
X77300Y1035400D03*
X51900Y1035400D03*
D39*
X199600Y882600D03*
D40*
X233600Y979800D03*
X216600Y979800D03*
X199600Y979800D03*
X182600Y979800D03*
X165600Y979800D03*
D41*
X199600Y847650D03*
D42*
X1865000Y580000D03*
X1625000Y580000D03*
X1855000Y985000D03*
X1855000Y745000D03*
X1855000Y405000D03*
X1855000Y165000D03*
D26*
X152112Y787300D02*
X137888Y787300D01*
X137888Y812700D02*
X152112Y812700D01*
X82112Y787300D02*
X67888Y787300D01*
X67888Y812700D02*
X82112Y812700D01*
D42*
X525000Y745000D03*
X525000Y985000D03*
D16*
X275000Y1026000D03*
X275000Y1054000D03*
D26*
X622300Y1002112D02*
X622300Y987888D01*
X647700Y987888D02*
X647700Y1002112D01*
X622300Y972112D02*
X622300Y957888D01*
X647700Y957888D02*
X647700Y972112D01*
X622300Y942112D02*
X622300Y927888D01*
X647700Y927888D02*
X647700Y942112D01*
X622300Y912112D02*
X622300Y897888D01*
X647700Y897888D02*
X647700Y912112D01*
D43*
X247900Y788500D03*
X225000Y788500D03*
X202100Y788500D03*
D44*
X225000Y721500D03*
D45*
X315000Y790500D03*
X315000Y749500D03*
D26*
X287300Y722112D02*
X287300Y707888D01*
X312700Y707888D02*
X312700Y722112D01*
D30*
X655000Y205500D03*
X655000Y184500D03*
D32*
X655000Y135500D03*
X655000Y154500D03*
D30*
X30000Y704500D03*
X30000Y725500D03*
D32*
X30000Y774500D03*
X30000Y755500D03*
D46*
X301350Y531000D03*
X301350Y479000D03*
X314050Y531000D03*
X288650Y531000D03*
X275950Y531000D03*
X314050Y479000D03*
X288650Y479000D03*
X275950Y479000D03*
D26*
X222112Y530400D02*
X207888Y530400D01*
X207888Y505000D02*
X222112Y505000D01*
X222112Y479600D02*
X207888Y479600D01*
D47*
X179000Y585000D03*
X211000Y585000D03*
X179000Y435000D03*
X211000Y435000D03*
D32*
X245000Y594500D03*
X245000Y575500D03*
D31*
X285500Y565000D03*
X304500Y565000D03*
X285500Y445000D03*
X304500Y445000D03*
D32*
X255000Y414500D03*
X255000Y395500D03*
X335000Y415500D03*
X335000Y434500D03*
X345000Y564500D03*
X345000Y545500D03*
D11*
X285500Y595000D03*
X304500Y595000D03*
X285500Y415000D03*
X304500Y415000D03*
D48*
X385000Y549000D03*
X385000Y581000D03*
X385000Y441000D03*
X385000Y409000D03*
D46*
X301350Y271000D03*
X301350Y219000D03*
X314050Y271000D03*
X288650Y271000D03*
X275950Y271000D03*
X314050Y219000D03*
X288650Y219000D03*
X275950Y219000D03*
D26*
X290400Y122112D02*
X290400Y107888D01*
X265000Y107888D02*
X265000Y122112D01*
X239600Y122112D02*
X239600Y107888D01*
D47*
X169000Y325000D03*
X201000Y325000D03*
X169000Y125000D03*
X201000Y125000D03*
D32*
X255000Y324500D03*
X255000Y305500D03*
D31*
X285500Y305000D03*
X304500Y305000D03*
X285500Y185000D03*
X304500Y185000D03*
D32*
X255000Y155500D03*
X255000Y174500D03*
D31*
X335500Y155000D03*
X354500Y155000D03*
X335500Y335000D03*
X354500Y335000D03*
D11*
X285500Y335000D03*
X304500Y335000D03*
X285500Y155000D03*
X304500Y155000D03*
D47*
X429000Y305000D03*
X461000Y305000D03*
X429000Y185000D03*
X461000Y185000D03*
D49*
X335000Y494500D03*
X335000Y475500D03*
X335000Y234500D03*
X335000Y215500D03*
X365000Y494500D03*
X365000Y475500D03*
X365000Y234500D03*
X365000Y215500D03*
D50*
X125000Y670500D03*
X125000Y759500D03*
D51*
X167380Y479600D02*
X182620Y479600D01*
X182620Y505000D02*
X167380Y505000D01*
X167380Y530400D02*
X182620Y530400D01*
X182620Y250400D02*
X167380Y250400D01*
X167380Y225000D02*
X182620Y225000D01*
X182620Y199600D02*
X167380Y199600D01*
D26*
X387888Y330400D02*
X402112Y330400D01*
X402112Y305000D02*
X387888Y305000D01*
X387888Y279600D02*
X402112Y279600D01*
X402112Y159600D02*
X387888Y159600D01*
X387888Y185000D02*
X402112Y185000D01*
X402112Y210400D02*
X387888Y210400D01*
D52*
X42500Y575000D03*
D53*
X79500Y612500D03*
X79500Y537500D03*
D32*
X125000Y595500D03*
X125000Y614500D03*
D52*
X42500Y435000D03*
D53*
X79500Y472500D03*
X79500Y397500D03*
D32*
X125000Y455500D03*
X125000Y474500D03*
D52*
X42500Y295000D03*
D53*
X79500Y332500D03*
X79500Y257500D03*
D32*
X125000Y315500D03*
X125000Y334500D03*
D52*
X42500Y155000D03*
D53*
X79500Y192500D03*
X79500Y117500D03*
D32*
X125000Y175500D03*
X125000Y194500D03*
D54*
X1028800Y936618D02*
X1028800Y953382D01*
X1181200Y953382D02*
X1181200Y936618D01*
X1028800Y703382D02*
X1028800Y686618D01*
X1181200Y686618D02*
X1181200Y703382D01*
X1028800Y453382D02*
X1028800Y436618D01*
X1181200Y436618D02*
X1181200Y453382D01*
X1028800Y203382D02*
X1028800Y186618D01*
X1181200Y186618D02*
X1181200Y203382D01*
D55*
X245500Y264500D03*
X245000Y545000D03*
X285000Y625000D03*
D56*
X685000Y460000D03*
X695000Y465000D03*
D55*
X40000Y1070000D03*
X60000Y1070000D03*
X80000Y1070000D03*
X100000Y1070000D03*
X120000Y1070000D03*
X140000Y1070000D03*
X160000Y1070000D03*
X180000Y1070000D03*
X200000Y1070000D03*
X220000Y1070000D03*
X240000Y1070000D03*
X260000Y1070000D03*
X280000Y1070000D03*
X20000Y1070000D03*
X20000Y1050000D03*
X20000Y1030000D03*
X20000Y1010000D03*
X20000Y990000D03*
X20000Y970000D03*
X20000Y950000D03*
X20000Y930000D03*
X20000Y910000D03*
X20000Y890000D03*
X20000Y870000D03*
X20000Y850000D03*
X20000Y830000D03*
X20000Y810000D03*
X20000Y670000D03*
X40000Y670000D03*
X60000Y670000D03*
X80000Y670000D03*
X490000Y80000D03*
X460000Y80000D03*
X430000Y80000D03*
X400000Y80000D03*
X370000Y80000D03*
X330000Y1070000D03*
X350000Y1070000D03*
X370000Y1070000D03*
X390000Y1070000D03*
X410000Y1070000D03*
X430000Y1070000D03*
X280000Y790000D03*
X280000Y770000D03*
X280000Y750000D03*
X690000Y1070000D03*
X710000Y1070000D03*
X730000Y1070000D03*
X750000Y1070000D03*
X770000Y1070000D03*
X790000Y1070000D03*
X450000Y1070000D03*
X470000Y1070000D03*
X490000Y1070000D03*
X510000Y1070000D03*
X530000Y1070000D03*
X550000Y1070000D03*
X570000Y1070000D03*
X590000Y1070000D03*
X610000Y1070000D03*
X630000Y1070000D03*
X650000Y1070000D03*
X670000Y1070000D03*
X810000Y1070000D03*
X830000Y1070000D03*
X850000Y1070000D03*
X870000Y1070000D03*
X890000Y1070000D03*
X910000Y1070000D03*
X930000Y1070000D03*
X950000Y1070000D03*
X970000Y1070000D03*
X990000Y1070000D03*
X1010000Y1070000D03*
X1030000Y1070000D03*
X1050000Y1070000D03*
X1070000Y1070000D03*
X1090000Y1070000D03*
X1110000Y1070000D03*
X1130000Y1070000D03*
X1150000Y1070000D03*
X1170000Y1070000D03*
X1190000Y1070000D03*
X1210000Y1070000D03*
X1230000Y1070000D03*
X1250000Y1070000D03*
X1270000Y1070000D03*
X1290000Y1070000D03*
X1310000Y1070000D03*
X1330000Y1070000D03*
X1350000Y1070000D03*
X1370000Y1070000D03*
X1390000Y1070000D03*
X1415000Y1070000D03*
X1435000Y1070000D03*
X1455000Y1070000D03*
X1475000Y1070000D03*
X1495000Y1070000D03*
X1515000Y1070000D03*
X1535000Y1070000D03*
X1555000Y1070000D03*
X1575000Y1070000D03*
X1595000Y1070000D03*
X1615000Y1070000D03*
X1635000Y1070000D03*
X1655000Y1070000D03*
X1675000Y1070000D03*
X1695000Y1070000D03*
X1715000Y1070000D03*
X1735000Y1070000D03*
X1755000Y1070000D03*
X1775000Y1070000D03*
X1795000Y1070000D03*
X1815000Y1070000D03*
X1835000Y1070000D03*
X1855000Y1070000D03*
X1875000Y1070000D03*
X1895000Y1070000D03*
X1915000Y1070000D03*
X810000Y80000D03*
X830000Y80000D03*
X850000Y80000D03*
X870000Y80000D03*
X890000Y80000D03*
X910000Y80000D03*
X930000Y80000D03*
X950000Y80000D03*
X970000Y80000D03*
X990000Y80000D03*
X1010000Y80000D03*
X1030000Y80000D03*
X1050000Y80000D03*
X1070000Y80000D03*
X1090000Y80000D03*
X1110000Y80000D03*
X1130000Y80000D03*
X1150000Y80000D03*
X1170000Y80000D03*
X1190000Y80000D03*
X1210000Y80000D03*
X1230000Y80000D03*
X1250000Y80000D03*
X1270000Y80000D03*
X1290000Y80000D03*
X1310000Y80000D03*
X1330000Y80000D03*
X1350000Y80000D03*
X1370000Y80000D03*
X1390000Y80000D03*
X1410000Y80000D03*
X1430000Y80000D03*
X1450000Y80000D03*
X1470000Y80000D03*
X1490000Y80000D03*
X1510000Y80000D03*
X1535000Y80000D03*
X1555000Y80000D03*
X1575000Y80000D03*
X1595000Y80000D03*
X1615000Y80000D03*
X1635000Y80000D03*
X1655000Y80000D03*
X1675000Y80000D03*
X1695000Y80000D03*
X1715000Y80000D03*
X1735000Y80000D03*
X1755000Y80000D03*
X1775000Y80000D03*
X1795000Y80000D03*
X1815000Y80000D03*
X1835000Y80000D03*
X1855000Y80000D03*
X1875000Y80000D03*
X1895000Y80000D03*
X1915000Y80000D03*
X690000Y535000D03*
X705000Y565000D03*
X705000Y550000D03*
X705000Y535000D03*
X690000Y520000D03*
X675000Y535000D03*
X675000Y520000D03*
X655000Y535000D03*
X635000Y535000D03*
X615000Y535000D03*
X655000Y520000D03*
X635000Y520000D03*
X675000Y505000D03*
X655000Y505000D03*
X655000Y490000D03*
X510000Y525000D03*
X510000Y500000D03*
X510000Y475000D03*
X510000Y450000D03*
X510000Y425000D03*
X510000Y400000D03*
X510000Y375000D03*
X510000Y350000D03*
X355000Y525000D03*
X310000Y625000D03*
X215000Y560000D03*
X240000Y625000D03*
X720000Y665000D03*
X735000Y665000D03*
X750000Y665000D03*
X765000Y665000D03*
X870000Y625000D03*
X870000Y640000D03*
X855000Y640000D03*
X855000Y625000D03*
X840000Y625000D03*
X840000Y640000D03*
X870000Y525000D03*
X855000Y525000D03*
X840000Y525000D03*
X840000Y510000D03*
X855000Y510000D03*
X870000Y510000D03*
X1030000Y580000D03*
X1030000Y565000D03*
X1045000Y580000D03*
X1045000Y565000D03*
X1060000Y580000D03*
X1060000Y565000D03*
X1075000Y580000D03*
X1075000Y565000D03*
X1205000Y575000D03*
X1250000Y575000D03*
X1295000Y575000D03*
X1345000Y575000D03*
X1390000Y575000D03*
X1430000Y575000D03*
X1465000Y575000D03*
X1500000Y575000D03*
X1205000Y320000D03*
X1250000Y320000D03*
X1295000Y320000D03*
X1345000Y320000D03*
X1395000Y320000D03*
X1430000Y320000D03*
X1465000Y320000D03*
X1500000Y320000D03*
X1205000Y830000D03*
X1250000Y830000D03*
X1295000Y830000D03*
X1345000Y830000D03*
X1390000Y830000D03*
X1430000Y830000D03*
X1465000Y830000D03*
X1500000Y830000D03*
X680000Y680000D03*
X680000Y665000D03*
X665000Y680000D03*
X665000Y665000D03*
X650000Y665000D03*
X665000Y695000D03*
X1930000Y105000D03*
X1930000Y125000D03*
X1930000Y145000D03*
X1930000Y165000D03*
X1930000Y185000D03*
X1930000Y205000D03*
X1930000Y225000D03*
X1930000Y245000D03*
X1930000Y265000D03*
X1930000Y285000D03*
X1930000Y305000D03*
X1930000Y325000D03*
X1930000Y345000D03*
X1930000Y365000D03*
X1930000Y385000D03*
X1930000Y405000D03*
X1930000Y425000D03*
X1930000Y445000D03*
X1930000Y465000D03*
X1930000Y485000D03*
X1930000Y505000D03*
X1930000Y525000D03*
X1930000Y545000D03*
X1930000Y565000D03*
X1930000Y585000D03*
X1930000Y605000D03*
X1930000Y625000D03*
X1930000Y645000D03*
X1930000Y670000D03*
X1930000Y690000D03*
X1930000Y710000D03*
X1930000Y730000D03*
X1930000Y750000D03*
X1930000Y770000D03*
X1930000Y790000D03*
X1930000Y810000D03*
X1930000Y830000D03*
X1930000Y850000D03*
X1930000Y870000D03*
X1930000Y890000D03*
X1930000Y910000D03*
X1930000Y930000D03*
X1930000Y950000D03*
X1930000Y970000D03*
X1930000Y990000D03*
X1930000Y1010000D03*
X1930000Y1030000D03*
X1930000Y1050000D03*
X625000Y100000D03*
X725000Y440000D03*
X770000Y600000D03*
X765000Y515000D03*
X951000Y635000D03*
X952000Y515000D03*
D56*
X915000Y601000D03*
X923000Y601000D03*
X907000Y594000D03*
X915000Y594000D03*
X923000Y594000D03*
X931000Y601000D03*
X931000Y594000D03*
X907000Y601000D03*
X938000Y601000D03*
X938000Y594000D03*
X906000Y556000D03*
X906000Y549000D03*
X914000Y556000D03*
X914000Y549000D03*
X922000Y549000D03*
X930000Y549000D03*
X938000Y549000D03*
X938000Y556000D03*
X930000Y556000D03*
X922000Y556000D03*
D55*
X780000Y560000D03*
X785000Y585000D03*
X800000Y500000D03*
X760000Y645000D03*
X290000Y510000D03*
X285000Y250000D03*
X264500Y480000D03*
X265000Y220000D03*
X385000Y525000D03*
X405000Y440000D03*
X310000Y250000D03*
X149306Y670500D03*
X335000Y645000D03*
X335000Y195000D03*
X335000Y460000D03*
M02*
