M48
;GenerationSoftware,Autodesk,EAGLE,9.2.2*%
;CreationDate,2018-12-27T14:53:51Z*%
FMAT,2
ICI,OFF
METRIC,TZ,000.000
T12C0.200
T11C0.350
T10C0.610
T9C0.813
T8C0.914
T7C1.016
T6C1.118
T5C2.007
T4C2.693
T3C2.818
T2C3.000
T1C5.000
%
G90
M71
T1
X186500Y58000
X185500Y98500
X52500Y74500
X52500Y98500
X185500Y16500
X185500Y40500
X185500Y74500
X162500Y58000
T2
X3500Y111000
X3500Y3500
X191500Y3500
X191500Y111000
X98000Y111000
X98000Y3500
T3
X4250Y29500
X4250Y43500
X4250Y57500
X4250Y15500
T4
X7950Y33250
X7950Y39750
X7950Y53750
X7950Y47250
X7950Y61250
X7950Y11750
X7950Y19250
X7950Y25750
T5
X84500Y29580
X84500Y19420
X84500Y85420
X84500Y95580
T6
X118120Y19500
X102880Y19500
X102880Y44500
X118120Y69500
X102880Y69500
X118120Y94500
X102880Y94500
X118120Y44500
T7
X164500Y91690
X150500Y88007
X150500Y102993
X164500Y79310
X164500Y71690
X150500Y77993
X164500Y42310
X164500Y34690
X150500Y37007
X150500Y51993
X164500Y22310
X164500Y14690
X150500Y12007
X150500Y26993
X10040Y88000
X4960Y88000
X35040Y92460
X35040Y100080
X150500Y63007
X17500Y47960
X17500Y50500
X17500Y25040
X17500Y22500
X17500Y19960
X164500Y99310
X17500Y53040
T8
X62230Y93500
X64000Y81000
X62230Y99500
X64770Y99500
X62230Y96500
X64770Y96500
X21500Y53040
X64770Y93500
X62230Y90500
X64770Y90500
X28730Y71500
X31270Y71500
X64000Y78460
X21500Y50500
X21500Y47960
X29040Y11500
X26500Y11500
X23960Y11500
X39500Y33040
X7500Y78730
X11000Y81270
X7500Y81270
X14500Y78730
X14500Y81270
X11000Y78730
X39500Y30500
X39500Y27960
X39500Y15960
X39500Y18500
X39500Y21040
X68040Y58270
X65500Y58270
X65500Y55730
X68040Y55730
X62960Y58270
X62960Y55730
X68270Y41000
X65730Y41000
X60500Y44230
X60500Y46770
X64000Y68460
X64000Y71000
X64000Y73540
X64000Y83540
T9
X9675Y97040
X5865Y97040
T10
X7730Y103540
X10270Y103540
X5190Y103540
T11
X171500Y107000
X173500Y107000
X175500Y107000
X177500Y107000
X179500Y107000
X181500Y107000
X183500Y107000
X185500Y107000
X187500Y107000
X189500Y107000
X191500Y107000
X81000Y8000
X83000Y8000
X85000Y8000
X87000Y8000
X89000Y8000
X91000Y8000
X93000Y8000
X95000Y8000
X97000Y8000
X99000Y8000
X101000Y8000
X103000Y8000
X105000Y8000
X107000Y8000
X109000Y8000
X111000Y8000
X113000Y8000
X115000Y8000
X117000Y8000
X119000Y8000
X121000Y8000
X123000Y8000
X125000Y8000
X127000Y8000
X129000Y8000
X131000Y8000
X133000Y8000
X135000Y8000
X137000Y8000
X139000Y8000
X141000Y8000
X143000Y8000
X145000Y8000
X147000Y8000
X149000Y8000
X151000Y8000
X153500Y8000
X155500Y8000
X157500Y8000
X159500Y8000
X161500Y8000
X163500Y8000
X165500Y8000
X167500Y8000
X169500Y8000
X171500Y8000
X173500Y8000
X175500Y8000
X177500Y8000
X179500Y8000
X181500Y8000
X183500Y8000
X185500Y8000
X187500Y8000
X189500Y8000
X191500Y8000
X69000Y53500
X70500Y56500
X70500Y55000
X70500Y53500
X69000Y52000
X67500Y53500
X67500Y52000
X65500Y53500
X63500Y53500
X61500Y53500
X65500Y52000
X63500Y52000
X67500Y50500
X65500Y50500
X65500Y49000
X51000Y52500
X51000Y50000
X51000Y47500
X51000Y45000
X51000Y42500
X51000Y40000
X51000Y37500
X51000Y35000
X35500Y52500
X31000Y62500
X21500Y56000
X24000Y62500
X72000Y66500
X73500Y66500
X75000Y66500
X76500Y66500
X87000Y62500
X87000Y64000
X85500Y64000
X85500Y62500
X84000Y62500
X84000Y64000
X87000Y52500
X85500Y52500
X84000Y52500
X84000Y51000
X85500Y51000
X87000Y51000
X103000Y58000
X103000Y56500
X104500Y58000
X104500Y56500
X106000Y58000
X106000Y56500
X107500Y58000
X107500Y56500
X47000Y107000
X125000Y57500
X129500Y57500
X134500Y57500
X139000Y57500
X143000Y57500
X146500Y57500
X150000Y57500
X120500Y32000
X125000Y32000
X129500Y32000
X134500Y32000
X139500Y32000
X143000Y32000
X146500Y32000
X150000Y32000
X120500Y83000
X125000Y83000
X129500Y83000
X134500Y83000
X139000Y83000
X143000Y83000
X146500Y83000
X150000Y83000
X68000Y68000
X68000Y66500
X66500Y68000
X66500Y66500
X65000Y66500
X66500Y69500
X193000Y10500
X193000Y12500
X193000Y14500
X193000Y16500
X193000Y18500
X193000Y20500
X193000Y22500
X193000Y24500
X193000Y26500
X193000Y28500
X193000Y30500
X193000Y32500
X193000Y34500
X193000Y36500
X193000Y38500
X193000Y40500
X193000Y42500
X193000Y44500
X193000Y46500
X193000Y48500
X193000Y50500
X193000Y52500
X193000Y54500
X193000Y56500
X193000Y58500
X193000Y60500
X193000Y62500
X193000Y64500
X193000Y67000
X193000Y69000
X193000Y71000
X193000Y73000
X193000Y75000
X193000Y77000
X193000Y79000
X193000Y81000
X193000Y83000
X193000Y85000
X193000Y87000
X193000Y89000
X193000Y91000
X193000Y93000
X193000Y95000
X193000Y97000
X193000Y99000
X193000Y101000
X193000Y103000
X193000Y105000
X62500Y10000
X72500Y44000
X77000Y60000
X76500Y51500
X95100Y63500
X95200Y51500
X78000Y56000
X78500Y58500
X80000Y50000
X76000Y64500
X29000Y51000
X28500Y25000
X26450Y48000
X26500Y22000
X38500Y52500
X40500Y44000
X31000Y25000
X14931Y67050
X33500Y64500
X33500Y46000
X24550Y26450
X24500Y54500
X28500Y62500
X4000Y107000
X6000Y107000
X8000Y107000
X10000Y107000
X12000Y107000
X14000Y107000
X16000Y107000
X18000Y107000
X20000Y107000
X22000Y107000
X24000Y107000
X26000Y107000
X28000Y107000
X2000Y107000
X2000Y105000
X2000Y103000
X2000Y101000
X2000Y99000
X2000Y97000
X2000Y95000
X2000Y93000
X2000Y91000
X2000Y89000
X2000Y87000
X2000Y85000
X2000Y83000
X2000Y81000
X2000Y67000
X4000Y67000
X6000Y67000
X8000Y67000
X49000Y8000
X46000Y8000
X43000Y8000
X40000Y8000
X37000Y8000
X33000Y107000
X35000Y107000
X37000Y107000
X39000Y107000
X41000Y107000
X43000Y107000
X28000Y79000
X28000Y77000
X28000Y75000
X69000Y107000
X71000Y107000
X73000Y107000
X75000Y107000
X77000Y107000
X79000Y107000
X120500Y57500
X45000Y107000
X49000Y107000
X51000Y107000
X53000Y107000
X55000Y107000
X57000Y107000
X59000Y107000
X61000Y107000
X63000Y107000
X65000Y107000
X67000Y107000
X81000Y107000
X83000Y107000
X85000Y107000
X87000Y107000
X89000Y107000
X91000Y107000
X93000Y107000
X95000Y107000
X97000Y107000
X99000Y107000
X101000Y107000
X103000Y107000
X105000Y107000
X107000Y107000
X109000Y107000
X111000Y107000
X113000Y107000
X115000Y107000
X117000Y107000
X119000Y107000
X121000Y107000
X123000Y107000
X125000Y107000
X127000Y107000
X129000Y107000
X131000Y107000
X133000Y107000
X135000Y107000
X137000Y107000
X139000Y107000
X141500Y107000
X143500Y107000
X145500Y107000
X147500Y107000
X149500Y107000
X151500Y107000
X153500Y107000
X155500Y107000
X157500Y107000
X159500Y107000
X161500Y107000
X163500Y107000
X165500Y107000
X167500Y107000
X169500Y107000
X33500Y19500
T12
X93800Y54900
X93800Y55600
X93000Y55600
X92200Y55600
X91500Y60100
X92300Y60100
X90700Y59400
X91500Y59400
X92300Y59400
X93100Y60100
X93100Y59400
X90700Y60100
X93800Y60100
X93800Y59400
X90600Y55600
X90600Y54900
X91400Y55600
X69500Y46500
X91400Y54900
X68500Y46000
X92200Y54900
X93000Y54900
M30